<?xml version="1.0" standalone="no"?><!DOCTYPE svg PUBLIC "-//W3C//DTD SVG 1.1//EN" "http://www.w3.org/Graphics/SVG/1.1/DTD/svg11.dtd"><svg t="1698059059902" class="icon" viewBox="0 0 1024 1024" version="1.1" xmlns="http://www.w3.org/2000/svg" p-id="20065" xmlns:xlink="http://www.w3.org/1999/xlink" width="200" height="200"><path d="M411.278689 763.803279h117.508196v251.803278h-117.508196z" fill="#455A64" p-id="20066"></path><path d="M495.213115 763.803279h83.934426v251.803278h-83.934426z" fill="#455A64" p-id="20067"></path><path d="M495.213115 763.803279h117.508196v251.803278h-117.508196z" fill="#546E7A" p-id="20068"></path><path d="M881.311475 763.803279h-805.770491c-28.537705 0-50.360656-21.822951-50.360656-50.360656v-654.688525c0-28.537705 21.822951-50.360656 50.360656-50.360655h805.770491c28.537705 0 50.360656 21.822951 50.360656 50.360655v654.688525c0 28.537705-21.822951 50.360656-50.360656 50.360656z" fill="#455A64" p-id="20069"></path><path d="M881.311475 8.393443h-805.770491c-28.537705 0-50.360656 21.822951-50.360656 50.360655v117.508197h906.491803v-117.508197c0-28.537705-21.822951-50.360656-50.360656-50.360655zM75.540984 763.803279h805.770491c28.537705 0 50.360656-21.822951 50.360656-50.360656v-117.508197h-906.491803v117.508197c0 28.537705 21.822951 50.360656 50.360656 50.360656z" fill="#B0BEC5" p-id="20070"></path><path d="M948.459016 763.803279h-805.770491c-28.537705 0-50.360656-21.822951-50.360656-50.360656v-654.688525c0-28.537705 21.822951-50.360656 50.360656-50.360655h805.770491c28.537705 0 50.360656 21.822951 50.360656 50.360655v654.688525c0 28.537705-21.822951 50.360656-50.360656 50.360656z" fill="#546E7A" p-id="20071"></path><path d="M948.459016 8.393443h-805.770491c-28.537705 0-50.360656 21.822951-50.360656 50.360655v117.508197h906.491803v-117.508197c0-28.537705-21.822951-50.360656-50.360656-50.360655z" fill="#CFD8DC" p-id="20072"></path><path d="M235.016393 134.295082h-50.360655c-10.072131 0-16.786885-6.714754-16.786886-16.786885V67.147541c0-10.072131 6.714754-16.786885 16.786886-16.786885h50.360655c10.072131 0 16.786885 6.714754 16.786886 16.786885v50.360656c0 10.072131-6.714754 16.786885-16.786886 16.786885zM402.885246 134.295082h-50.360656c-10.072131 0-16.786885-6.714754-16.786885-16.786885V67.147541c0-10.072131 6.714754-16.786885 16.786885-16.786885h50.360656c10.072131 0 16.786885 6.714754 16.786885 16.786885v50.360656c0 10.072131-6.714754 16.786885-16.786885 16.786885zM570.754098 134.295082h-50.360655c-10.072131 0-16.786885-6.714754-16.786886-16.786885V67.147541c0-10.072131 6.714754-16.786885 16.786886-16.786885h50.360655c10.072131 0 16.786885 6.714754 16.786886 16.786885v50.360656c0 10.072131-6.714754 16.786885-16.786886 16.786885zM738.622951 134.295082h-50.360656c-10.072131 0-16.786885-6.714754-16.786885-16.786885V67.147541c0-10.072131 6.714754-16.786885 16.786885-16.786885h50.360656c10.072131 0 16.786885 6.714754 16.786885 16.786885v50.360656c0 10.072131-6.714754 16.786885-16.786885 16.786885zM906.491803 134.295082h-50.360655c-10.072131 0-16.786885-6.714754-16.786886-16.786885V67.147541c0-10.072131 6.714754-16.786885 16.786886-16.786885h50.360655c10.072131 0 16.786885 6.714754 16.786886 16.786885v50.360656c0 10.072131-6.714754 16.786885-16.786886 16.786885z" fill="#455A64" p-id="20073"></path><path d="M142.688525 763.803279h805.770491c28.537705 0 50.360656-21.822951 50.360656-50.360656v-117.508197h-906.491803v117.508197c0 28.537705 21.822951 50.360656 50.360656 50.360656z" fill="#CFD8DC" p-id="20074"></path><path d="M856.131148 637.901639h50.360655c10.072131 0 16.786885 6.714754 16.786886 16.786886v50.360655c0 10.072131-6.714754 16.786885-16.786886 16.786886h-50.360655c-10.072131 0-16.786885-6.714754-16.786886-16.786886v-50.360655c0-10.072131 6.714754-16.786885 16.786886-16.786886zM688.262295 637.901639h50.360656c10.072131 0 16.786885 6.714754 16.786885 16.786886v50.360655c0 10.072131-6.714754 16.786885-16.786885 16.786886h-50.360656c-10.072131 0-16.786885-6.714754-16.786885-16.786886v-50.360655c0-10.072131 6.714754-16.786885 16.786885-16.786886zM520.393443 637.901639h50.360655c10.072131 0 16.786885 6.714754 16.786886 16.786886v50.360655c0 10.072131-6.714754 16.786885-16.786886 16.786886h-50.360655c-10.072131 0-16.786885-6.714754-16.786886-16.786886v-50.360655c0-10.072131 6.714754-16.786885 16.786886-16.786886zM352.52459 637.901639h50.360656c10.072131 0 16.786885 6.714754 16.786885 16.786886v50.360655c0 10.072131-6.714754 16.786885-16.786885 16.786886h-50.360656c-10.072131 0-16.786885-6.714754-16.786885-16.786886v-50.360655c0-10.072131 6.714754-16.786885 16.786885-16.786886zM184.655738 637.901639h50.360655c10.072131 0 16.786885 6.714754 16.786886 16.786886v50.360655c0 10.072131-6.714754 16.786885-16.786886 16.786886h-50.360655c-10.072131 0-16.786885-6.714754-16.786886-16.786886v-50.360655c0-10.072131 6.714754-16.786885 16.786886-16.786886z" fill="#455A64" p-id="20075"></path><path d="M235.016393 386.098361c0 80.577049 31.895082 154.439344 82.255738 209.836065h456.603279c50.360656-55.396721 82.255738-129.259016 82.255738-209.836065s-31.895082-154.439344-82.255738-209.836066H317.272131c-50.360656 55.396721-82.255738 129.259016-82.255738 209.836066z" fill="#EC407A" p-id="20076"></path><path d="M545.57377 176.262295C429.744262 176.262295 335.737705 270.268852 335.737705 386.098361s94.006557 209.836066 209.836065 209.836065S755.409836 501.927869 755.409836 386.098361s-94.006557-209.836066-209.836066-209.836066z" fill="#CFD8DC" p-id="20077"></path><path d="M545.57377 276.983607c-60.432787 0-109.114754 48.681967-109.114754 109.114754s48.681967 109.114754 109.114754 109.114754S654.688525 446.531148 654.688525 386.098361s-48.681967-109.114754-109.114755-109.114754z" fill="#EC407A" p-id="20078"></path><path d="M830.95082 436.459016l-33.573771-25.180327v-50.360656l33.573771-25.180328H906.491803l-41.967213 50.360656 41.967213 50.360655zM797.377049 411.278689H570.754098c-13.429508 0-25.180328-11.75082-25.180328-25.180328s11.75082-25.180328 25.180328-25.180328h226.622951v50.360656z" fill="#CFD8DC" p-id="20079"></path></svg>