<?xml version="1.0" standalone="no"?><!DOCTYPE svg PUBLIC "-//W3C//DTD SVG 1.1//EN" "http://www.w3.org/Graphics/SVG/1.1/DTD/svg11.dtd"><svg t="1690465411754" class="icon" viewBox="0 0 1024 1024" version="1.1" xmlns="http://www.w3.org/2000/svg" p-id="10940" xmlns:xlink="http://www.w3.org/1999/xlink" width="200" height="200"><path d="M496.64 775.210667l-161.344 62.293333A42.666667 42.666667 0 0 1 277.333333 795.370667l9.386667-172.672a42.666667 42.666667 0 0 0-9.514667-29.226667l-109.077333-134.186667a42.666667 42.666667 0 0 1 22.122667-68.16l167.146666-44.458666a42.666667 42.666667 0 0 0 24.853334-18.048l93.930666-145.216a42.666667 42.666667 0 0 1 71.637334 0l93.930666 145.216a42.666667 42.666667 0 0 0 24.853334 18.048l167.146666 44.458666a42.666667 42.666667 0 0 1 22.122667 68.138667l-109.077333 134.186667a42.666667 42.666667 0 0 0-9.493334 29.226666l9.386667 172.693334a42.666667 42.666667 0 0 1-57.984 42.133333l-161.344-62.293333a42.666667 42.666667 0 0 0-30.72 0z" fill="#f4ea2a" p-id="10941"></path></svg>