<?xml version="1.0" standalone="no"?><!DOCTYPE svg PUBLIC "-//W3C//DTD SVG 1.1//EN" "http://www.w3.org/Graphics/SVG/1.1/DTD/svg11.dtd"><svg t="1690538775203" class="icon" viewBox="0 0 1024 1024" version="1.1" xmlns="http://www.w3.org/2000/svg" p-id="1166" xmlns:xlink="http://www.w3.org/1999/xlink" width="200" height="200"><path d="M597.33333301 810.666667a85.333333 85.333333 0 1 1-85.33333301-85.333334 85.333333 85.333333 0 0 1 85.33333301 85.333334z m-136.53333301 0a51.2 51.2 0 1 0 51.2-51.2 51.413333 51.413333 0 0 0-51.2 51.2zM597.33333301 512a85.333333 85.333333 0 1 1-85.33333301-85.33333301 85.333333 85.333333 0 0 1 85.33333301 85.33333301z m-136.53333301 0a51.2 51.2 0 1 0 51.2-51.2 51.413333 51.413333 0 0 0-51.2 51.2zM597.33333301 213.333333a85.333333 85.333333 0 1 1-85.33333301-85.33333301 85.333333 85.333333 0 0 1 85.33333301 85.33333301z m-136.53333301 0a51.2 51.2 0 1 0 51.2-51.2 51.413333 51.413333 0 0 0-51.2 51.2z" p-id="1167"></path></svg>