<?xml version="1.0" standalone="no"?><!DOCTYPE svg PUBLIC "-//W3C//DTD SVG 1.1//EN" "http://www.w3.org/Graphics/SVG/1.1/DTD/svg11.dtd"><svg t="1698052982259" class="icon" viewBox="0 0 1202 1024" version="1.1" xmlns="http://www.w3.org/2000/svg" p-id="3249" xmlns:xlink="http://www.w3.org/1999/xlink" width="234.765625" height="200"><path d="M377.446605 376.822468s-13.820167 58.267609-96.941788 70.839504c-14.956988 6.241366-45.13845 33.257564-47.456671 66.871777 6.040751 35.085393 18.701807 50.04238 34.23835 60.1846s39.11999-6.687178 37.894008-23.583447c-3.833982-14.377432 0.75788-14.065364 0.75788-14.065363l19.259072-16.383586s24.854011 7.15528 99.349171-25.923959c4.458119 0.222906 6.820921 2.719452 9.428921 22.780985s51.112329 104.765785 81.538987 120.369201c7.110699 20.707961 4.725606 35.820982 4.725606 35.820982s-2.229059 26.32519 33.435889 86.933311c-23.940096 11.145296-22.424336 17.252919-91.39143 37.737973s-73.759571 57.665763-73.759571 57.665763-18.122252 11.435074-1.738666 47.233766c24.163002 33.012368 115.197783-1.292854 115.197783-1.292854s125.763524-54.790277 150.773568-58.445934a78.128527 78.128527 0 0 1 18.991585 7.333605s34.305222 21.131482 102.67047 18.122252c3.900854-0.869333 3.254427 3.232136 3.254426 3.232136s-38.183785 25.277532-59.538173 30.627274-68.387538 13.15145-78.752663 30.203753c-13.797877 10.14222-15.960064 20.707961-13.374356 29.111514s-4.302084 19.214491 13.17374 26.748711c6.464272 1.292854 4.458119 6.040751 4.458119 6.040751s11.858595 28.041566 53.720328 28.97777 77.86104-16.18297 77.86104-16.18297l103.718127-45.51739s99.059394-35.152265 121.929542-53.274517c28.465087-9.495792 111.742741-70.973247 132.450701-108.064793 31.920129-36.46741 62.993215-124.693575 66.648872-161.138694s-0.423521-117.35997-7.980032-142.169399-9.139143-80.669655-62.926343-153.403859c-37.894007-81.093176-148.410766-120.792721-162.431548-135.972615 3.878563-20.707961 1.51576-72.065486-0.869333-78.529758-5.594939-1.292854-81.316082 3.031521-126.610566 25.879378-9.718698-1.939282-9.072271-0.847043-9.072272-0.847042s-11.435074-12.527313-34.929358-8.626459c0.780171-7.489639-12.170664-32.789462-16.18297-38.116914 0.847043-6.687178-3.455042-14.377432-3.455042-14.377432s9.049981-15.960064 9.04998-24.876301 1.292854-46.319851-7.043827-59.114652-50.465902 11.925467-50.465902 11.925467l-4.458118-0.423521S712.095272 0.289778 668.940684 0.847043s-43.867886-0.423521-81.093176 21.577293c-11.947758 4.324375-26.191446 21.867071-26.191446 22.290593s-37.894007-1.87241-59.382139 9.629536 2.229059 48.90556 2.22906 48.90556l19.704884 38.250657s2.875486 18.545773-2.006154 29.624198c-5.617229 4.90393-9.941604 3.74482-9.941604 3.744819s-10.498869 1.292854-16.53962 13.953911-8.626459 17.096885-8.916237 24.006968c-0.557265 2.741743-2.006153 2.006153-2.006153 2.006154s-117.270808 12.259826-127.836549 17.230628c-2.496546-2.920068 0.423521 7.333605 4.458119 13.151449s24.697977 38.518144 40.9924 53.831782c0.847043 1.827829-1.51576 3.455042-1.515761 3.455041s-84.99403 5.394323-179.907373-61.923266c-3.878563-9.495792-90.611259-72.912528-130.734325-70.32682S25.143788 168.962692 0.089162 218.15803c0 36.668025 37.894007 55.726482 86.286884 61.254548 2.028444 2.451965 34.082316 2.229059 82.475193 37.537358s205.786751 56.083131 205.786751 56.083131z" fill="#FEEECA" p-id="3250"></path><path d="M732.936976 19.794046s4.948512-1.716376 3.165264 5.884717 18.545773 0 18.545773 0 5.037674-2.719452 0 2.229059-8.671041 8.782493-1.003077 7.043827 20.418183-14.533466 20.418183-14.533466l6.910084-0.73559s-1.292854-8.916237-4.458119-10.476578-19.54885-2.786324-43.578108 10.588031zM495.943395 59.471301l28.1976 19.905499s9.651827 5.015383 1.471179-6.531143c-9.250596-8.091485 1.8947-4.948512 1.8947-4.948512s24.920883 7.445058 11.435074-7.333605c-7.868579-3.789401-0.646427-6.798631-0.646427-6.798631s3.00923-6.687178 0.423521-7.132989-34.461256 1.315145-42.775647 12.839381zM586.911304 23.226798s-5.750973 33.881701-2.22906 49.618859 9.495792 4.458119 9.718699-5.594939c2.362803-7.199861 7.734836-35.174555 10.766356-39.699546 1.092239 10.14222 3.677948 51.981662 11.145296 63.639642 5.394323 13.374356 13.597261 20.061533 15.960065 1.515761 0-18.568064-3.232136-55.837935 4.970802-74.740357 2.719452 1.092239 2.875486 9.941604 2.875486 9.941604s4.168341 34.595 8.470425 40.836366c1.671794 7.333605 13.53039 12.817091 13.953911-11.568818 1.760957-22.825567 3.923144-50.555064 6.687178-56.03855-5.349742-0.668718-38.718759-7.445058-82.319158 22.089978z" fill="#FEEECA" p-id="3251"></path><path d="M636.730778 425.861772c-0.646427-9.295177 35.37517-27.194523 60.831027-10.588032 3.232136 5.617229 1.738666 12.081501-3.232136 13.374356s-14.66721-1.292854-25.455856 14.890116a122.263901 122.263901 0 0 1 0 13.15145h-4.948512l-1.092239-12.928544s-0.534974-7.445058-14.555757-11.145296-11.546527-6.75405-11.546527-6.75405zM657.750807 514.422296s0.601846 0.222906 5.840135 1.11453c5.750973 0.958495 11.970048-2.853196 20.551927-4.14605a4.993093 4.993093 0 0 1 3.722529 0.624136 3.967725 3.967725 0 0 1 1.582632 3.767111c-0.579555 2.229059-4.257503 2.875486-11.145297 4.101469a50.109252 50.109252 0 0 1-11.65798 1.15911 39.432058 39.432058 0 0 1-10.766356-2.429674 6.196785 6.196785 0 0 1-1.538051-0.869333c-0.601846-0.512684-1.404307-1.159111-1.426598-2.095316a2.229059 2.229059 0 0 1 1.270564-1.939282c1.069948-0.490393 2.184478 0.178325 3.566495 0.713299zM239.824486 536.35624s8.916237-2.229059 10.766356-17.252919c6.910084-2.229059 6.687178 0.289778 3.031521 12.638766a24.742558 24.742558 0 0 1-12.973125 10.498869zM252.819901 560.652985s14.043073 0.423521 17.186047-34.572709c4.747896-3.254427 8.358972 1.426598 4.190632 17.27521s-16.405876 20.707961-18.010799 22.491208-3.365879-5.193708-3.36588-5.193709zM276.024408 577.571545s7.935451-9.295177 7.801708-26.971617c3.455042-4.970802 6.464272-4.190631 6.687178 6.687178a37.648811 37.648811 0 0 1-5.817845 19.905499zM387.544243 856.070209s-6.999246 6.575725-6.687178 11.145297c2.920068 0 20.284439-9.183724 28.57654-10.476579 1.850119-3.76711 0.75788-7.980032-5.594939-5.505776a155.120234 155.120234 0 0 1-16.294423 4.837058zM384.847082 895.257071a8.425844 8.425844 0 0 0-0.468103 3.521914 10.476579 10.476579 0 0 0 1.225983 3.677948 2.652581 2.652581 0 0 0 0.869333 0.980786 0.958495 0.958495 0 0 0 0.691008 0.222906 1.047658 1.047658 0 0 0 0.624137-0.423522c0.75788-0.980786 4.569571-7.222152 5.26058-8.2921a16.873979 16.873979 0 0 1 3.722529-3.945435 27.952403 27.952403 0 0 1 18.211414-6.508853 12.571894 12.571894 0 0 0 3.7894-0.133744 6.910084 6.910084 0 0 0 2.362803-0.802461c0.156034 0 2.451965-1.538051 2.429675-3.343589s-2.095316-3.633367-5.171418-3.811691c-4.970802 0-16.071517 1.604923-21.577293 5.394323s-10.342835 9.161434-11.970048 13.463518zM626.231909 961.39326s-3.232136 11.635689 2.474256 5.171417 17.275209-12.081501 22.446627-13.820167 3.76711-6.241366 1.069948-6.352819-8.403553 0.312068-16.717944 5.929297-9.272887 9.072271-9.272887 9.072272zM640.676213 984.464023s-4.079178 8.314391 2.050735 5.706392c-0.847043 2.050735 1.404307 6.932374 3.900853 0.512683s13.797877-18.924713 28.799446-22.156849c6.464272-0.445812 14.020783-2.496546 10.119929-6.932374-1.292854-1.604923-17.141466 0.222906-19.727175 1.939281s-10.565741 0.75788-25.143788 20.930867zM1072.913094 545.852032s-16.963141-12.950834-3.455041-18.701807 79.3768 56.662686 98.94794 88.003259c8.626459 8.336682 28.175309 40.279101 28.175309 40.279101a298.693941 298.693941 0 0 1-20.061533 69.881008c-3.74482-6.330528-23.583447-79.75574-38.540435-99.260009s-27.105361-41.661118-65.06624-80.201552zM996.679268 412.665741s-21.844781-9.183724 3.744819-13.508099 141.233195 47.746449 193.281729 109.580553c6.040751 12.950834 10.654903 85.417551 7.199861 96.919497-6.330528-4.302084-35.954726-55.213798-55.525866-73.558956-5.750973-5.26058-23.003892-33.079239-69.59123-66.715743s-79.109313-52.717252-79.109313-52.717252zM982.881391 331.862343s-10.92239-6.040751 2.229059-9.78557 111.608997 12.950834 170.277837 65.578923c5.461195 6.910084 20.707961 40.25681 22.424336 55.213798-12.348988-10.342835-60.964771-52.917867-102.670469-73.046272s-78.173108-35.954726-92.260763-37.960879zM981.72228 265.369505s-12.638766-6.687178 2.607999-11.791723 68.164632 10.075348 79.666578 16.116098 45.450518 38.250657 63.840258 72.176939c-6.330528-2.585709-43.422074-29.33442-54.344465-33.926282s-10.075348-9.139143-91.77037-42.575032zM128.371523 292.385703s-36.690315-15.893193-61.276839-15.04615S-6.241366 248.874467 0.668718 216.508526s62.547403-75.921758 148.410765-26.748711c-22.000815 48.326005-23.739481 57.242242-20.70796 102.625888zM171.50382 203.357076s-25.455857 39.721836-26.102284 97.944864a445.522075 445.522075 0 0 0 42.708775 25.010045c-3.232136-15.960064 2.585709-64.486684 15.113022-97.721958-16.762526-14.221398-20.930866-18.545773-31.719513-25.232951zM217.444731 238.308726s-22.424336 64.642719-18.545773 92.751156c9.049981 3.031521 18.545773 9.495792 22.000815 8.916237s2.585709-28.041566 2.585709-28.041566 7.980032-48.548911 14.890115-59.114652c-10.342835-5.884716-12.727928-9.740989-20.930866-14.511175zM357.028422 232.267975l1.49347 6.040751 29.133804 19.615721 35.664948 16.405876 25.879378 9.495793 21.131482 10.989262 13.597262 6.486562 3.878563 3.232136s6.910084 16.18297 10.788647 4.302085 29.133805-49.039304 32.588846-55.726482c0-2.229059-28.97777-18.81326-28.97777-18.81326s-1.337436-10.565741 6.441981-15.603415 14.912406-9.049981 19.013875-14.890116 20.908576-7.53422 21.555003-7.333605 7.690254 11.011553 7.690255 11.011553l16.56191 10.14222 20.395892 10.788647 6.486563 3.655657s-3.878563 33.658795-4.101469 46.810244 0.423521 26.748711 1.51576 28.977771 4.948512 21.44355 11.63569 0 12.594185-67.228427 18.278285-72.266102c5.238289-1.582632 8.225229 2.964649 6.397401 8.336682s-2.764033 41.282178 0.312068 48.482039c0.222906 9.339758 5.215999 29.624198 5.215999 29.624198s6.464272 14.66721 9.072271-7.556511c2.942358-14.444304 9.049981-75.275331 9.04998-78.529758s7.757126-1.069948 7.757127-1.069949 0 23.516575 1.939281 31.20683c0 9.272887 6.174494 32.967786 7.623383 36.668025s5.750973 11.145296 7.91316-3.232136 3.677948-32.143035 4.324375-37.894007 3.878563-30.627274 4.458119-31.719514 33.212983-14.199107 33.212983-14.199107l20.061533-10.632613 15.603415-8.604169 8.693331-4.814768 7.177571-19.125328 6.687178-10.053057 1.225982 1.003076a8.916237 8.916237 0 0 1 3.232136-0.111453c1.092239 0.312068 4.859349 5.617229 5.728682 8.202938s6.263657 3.120683 6.798631 3.120683a5.572648 5.572648 0 0 1 2.808615 5.706392c-0.557265 3.343589 3.120683 7.244443 5.929297 6.37511s18.501192-3.165264 19.325944 3.878563-5.840135 12.41586-5.840135 12.41586l-16.829397 16.160679s0.534974-3.432751 20.819413 9.183725 21.242935 14.132236 32.990077 9.161433 19.481978-25.032336 19.481978-25.032335l24.943173-34.104607 24.519652-21.644166 16.405876-9.629536 13.15145-5.684101a58.780293 58.780293 0 0 1 7.91316-3.299007c1.181401 0 0.713299-8.782493-4.034597-8.916237s-37.671102 4.814768-47.902483 4.591862-46.63192 8.916237-76.835673 22.647242c-4.837059-3.566495-7.690254-1.827829-7.690255-1.827829a36.712606 36.712606 0 0 0-29.869394-7.823998 19.526559 19.526559 0 0 1-4.168341 0.200615 21.42126 21.42126 0 0 0-7.266733-17.163756c-0.646427-5.037674-1.738666-12.059211-5.594939-13.039997 0.913914-2.362803-1.337436-6.887793-4.079178-8.2921 0-3.455042-0.133744-10.788647-4.346666-12.41586 0-2.697162 3.878563-6.241366 3.878564-6.241366s7.333605-13.374356 7.445057-22.55808-0.312068-45.183031-4.636443-47.991646-22.000815 13.90933-22.000815 13.90933l-10.342835 7.445058a21.688747 21.688747 0 0 1 7.980032-14.020783c1.827829-1.069948 1.069948-3.878563-3.03152-1.292854s-15.090731 6.263657-16.94085 0.980786c-0.312068-1.827829 0.75788-5.171417-0.312069-6.263656s-5.394323 0.869333-5.817844 1.181401-7.556511 1.850119-9.495793-1.716376S704.761667 0.37894 669.052137 1.225983c-2.697162 16.740235-8.916237 48.326005-7.422767 61.165386 0 7.645673-9.518083 25.990831-15.113022-1.181402a226.204934 226.204934 0 0 1-6.3974-29.780231c-0.579555-3.098392 0-27.751788-5.550357-3.098393-0.713299 10.431997-2.006153 11.011553-2.719453 29.133805s2.585709 30.337497 0.133744 36.957802c0.156034 5.907007-5.884716 20.061533-14.66721-1.15911s-11.145296-52.628089-11.501946-65.846411c-0.222906-3.967725-4.458119 13.93162-4.458118 13.93162s-5.193708 19.860918-5.907007 23.873225-2.229059 9.495792-2.22906 9.495792-9.40663 21.577294-9.986185-18.880131a316.860774 316.860774 0 0 1 4.034597-33.07924c0.579555-2.229059-16.695654 8.202938-25.455857 22.446627a63.974001 63.974001 0 0 0-22.000815 1.13682s-4.90393 1.939282-0.512683 5.817845c-2.006153 0.869333-7.556511 5.617229-1.426598 7.846288 3.299008 3.031521 10.119929 10.075348-0.869333 9.072272s-21.867071-5.684101-12.438151 3.878563 2.652581 9.562664-2.229059 7.17757-16.071517-12.081501-16.071517-12.081501l-9.161434-4.458118-3.232136 0.646427s-1.716376 12.505022 2.920068 20.930866 13.374356 33.85941 28.97777 58.133866c0.289778 3.633367-0.557265 15.090731-0.557265 15.090731l-0.445812 15.291347-5.884716 1.716375a16.049227 16.049227 0 0 0-17.542696 6.687178 42.017767 42.017767 0 0 0-12.237536 22.513499c-1.069948 7.980032-1.649504 8.916237-1.426598 10.721775-2.229059-0.401231-0.066872-4.993093-130.645163 16.94085zM423.855619 494.962609s-7.935451-64.486684 9.518083-93.620489c7.779417-1.716376 6.040751 1.51576 0 27.172232s-5.037674 66.403675-3.811692 69.212291c-0.913914-1.426598-5.706392-2.764033-5.706391-2.764034zM516.227834 539.855863a2.229059 2.229059 0 0 1-1.961572-1.159111 79.087023 79.087023 0 0 1-7.15528-21.020029 2.229059 2.229059 0 0 1 1.805538-2.607999 2.229059 2.229059 0 0 1 2.585709 1.805538 75.208459 75.208459 0 0 0 6.687178 19.660302 2.229059 2.229059 0 0 1-0.869334 3.031521 2.095316 2.095316 0 0 1-1.092239 0.289778zM503.945718 530.382361a3.38817 3.38817 0 0 1-3.187555-1.983863 96.206198 96.206198 0 0 1-5.305161-23.940096 3.354734 3.354734 0 1 1 6.687178-0.557265 91.502883 91.502883 0 0 0 4.859349 22.000815 3.343589 3.343589 0 0 1-1.87241 4.346665 3.432751 3.432751 0 0 1-1.181401 0.133744zM868.842719 518.590637c-1.003077 0.780171-9.495792 7.89087-7.801707 10.610322a3.343589 3.343589 0 0 0 2.474255 1.069949 5.461195 5.461195 0 0 0 3.74482-1.11453 11.65798 11.65798 0 0 0 3.120683-4.346665c0.401231-0.713299 0-0.200615 1.292854-2.697162a5.750973 5.750973 0 0 0 0.780171-2.229059 1.939282 1.939282 0 0 0-0.245196-1.582632c-0.557265-0.601846-1.627213-0.37894-1.961573-0.312069a3.544204 3.544204 0 0 0-1.404307 0.601846zM883.53222 497.726643c-2.541128 1.337436-1.716376 5.28287-2.897777 11.524236-1.604923 8.492716-5.327452 12.7948-3.299008 14.800953a3.165264 3.165264 0 0 0 2.607999 0.757881c1.49347-0.245197 2.451965-1.694085 3.343589-3.410461a39.253734 39.253734 0 0 0 3.098392-8.604169c0.334359-1.248273 2.407384-8.916237 1.582632-13.374355a2.674871 2.674871 0 0 0-0.913914-1.738667 3.74482 3.74482 0 0 0-3.521913 0.044582z" fill="#D27F67" p-id="3252"></path><path d="M890.442303 473.630512a26.860164 26.860164 0 0 0-0.289777 10.16451 51.268363 51.268363 0 0 1 0 20.707961c-1.203692 5.572648-1.827829 11.323621-3.566495 16.762525-0.200615 0.646427-0.847043 2.63029 0 3.700239a3.343589 3.343589 0 0 0 3.142973 0.624136c3.00923-0.75788 4.324375-5.617229 5.215999-9.518083a105.32305 105.32305 0 0 0 2.697162-31.853257c0-1.382017-1.003077-12.126082-3.923145-12.661056a3.120683 3.120683 0 0 0-2.496546 0.557265 2.719452 2.719452 0 0 0-0.780171 1.51576z" fill="#D27F67" p-id="3253"></path><path d="M746.311331 370.13529a6.486562 6.486562 0 0 0 3.36588 3.187555c4.212922 1.627213 9.473502-2.786324 11.457364-4.346665 9.674117-7.578801 30.047719-16.963141 45.004707-13.5081 7.868579 1.805538 10.588031 6.330528 18.345158 5.215999a29.936266 29.936266 0 0 0 12.148373-5.505776c5.082255-3.343589 5.617229-5.26058 5.594938-6.3974a3.321298 3.321298 0 0 0-1.337435-2.741743c-1.560341-1.003077-3.900854 0.245197-4.903931 0.802461-2.429675 1.292854-2.340512 2.407384-4.814768 4.168341a9.584955 9.584955 0 0 1-5.394323 2.229059c-1.671794 0-2.229059-0.713299-6.843212-3.521913a63.015505 63.015505 0 0 0-7.043827-3.923145 25.18837 25.18837 0 0 0-5.327452-1.939281 22.402046 22.402046 0 0 0-7.311314-0.245197 59.337558 59.337558 0 0 0-13.708715 2.541128 61.410583 61.410583 0 0 0-15.06844 7.445058c-2.229059 1.471179-6.687178 4.458119-11.435074 8.202938s-5.372033 4.725606-7.645673 5.193708c-1.382017 0.312068-4.14605 0.579555-4.903931 2.229059a2.63029 2.63029 0 0 0-0.178325 0.913914zM514.377715 376.15375s-11.145296-3.142974-2.697161 5.282871c4.859349 3.343589 16.294423 3.990016 21.265225-1.292855s17.141466-10.365126 31.808676-3.343588c1.939282 2.362803 11.858595 6.575725 24.051549 10.342835 6.910084 2.050735 11.011553-2.362803 13.062287-6.040751-4.658734-1.604923-11.145296 2.697162-20.819413-5.394323s-25.455857-13.574971-34.082316-12.081502-11.880886 0-17.698731 7.333605-8.448135 6.486562-14.890116 5.193708zM375.574195 370.536521s-2.585709 10.075348 5.327452 4.168341c2.719452-3.00923 10.498869-16.829397 30.627274-28.175309 1.426598-1.448889 2.451965-7.623383-4.168341-5.037674s-26.971617 23.427413-31.786385 29.044642zM395.7026 289.710832a29.913975 29.913975 0 0 0 6.687178 9.362049 2.474256 2.474256 0 0 0 0.869333 3.299008 334.804701 334.804701 0 0 0 84.481346 61.076224c0-6.219075-5.594939-8.225229-11.145296-11.680271s-55.213798-34.23835-78.529758-61.990138c-1.359726-1.315145-2.206769-0.913914-2.362803-0.066872zM414.404407 292.876096s31.20683-5.394323 67.741111 19.214491c0.646427 2.897777-7.244443 0.200615-30.85018-9.183724a211.181074 211.181074 0 0 0-36.890931-7.53422c-5.171417-0.111453 0-2.496546 0-2.496547zM449.4898 307.877665s27.618044 4.948512 31.942419 7.110699c2.697162 2.920068-0.869333 4.458119-4.212922 3.455042 1.181401 2.808615 0.869333 7.333605-3.878563 4.636443a31.20683 31.20683 0 0 1-12.616475-3.990016 3.00923 3.00923 0 0 1-0.75788-4.458118s-9.272887-1.092239-11.145297-2.496547-1.560341-4.681024 0.668718-4.257503z" fill="#231815" p-id="3254"></path><path d="M605.100427 174.53534s1.003077-23.159926 2.429675-24.163002 0.579555-5.617229 5.907007-2.229059c1.426598 3.299008 3.455042 4.190631 4.168341-3.00923s4.88164-1.159111 4.881639-1.159111 1.582632 3.455042 2.028444-2.385094 1.805538-10.989262 3.477333-11.992339c0.780171-1.426598 5.840135-2.607999 6.976955 2.942359s4.970802 11.435074 7.066118 7.110699 6.999246-0.847043 6.308238 3.521913 1.783247 7.489639 5.171417 2.518837 7.779417 2.808615 7.333605 8.916237c2.050735 5.706392 3.209845 10.721775 1.203692 15.179894-2.741743 3.165264-23.449703 17.966218-24.898592 20.551926s-7.333605 4.747896-13.218321 0-19.259072-8.046904-18.835551-15.80403z" fill="#FEEECA" p-id="3255"></path><path d="M618.38562 171.592982c2.050735-0.267487 2.496546 0.691008 4.614153 0.646427a5.416614 5.416614 0 0 0 3.990016-1.248273 9.40663 9.40663 0 0 1 2.073025-1.961572 2.095316 2.095316 0 0 1 0.668718-0.267487c0.891624-0.222906 2.006153 0.312068 4.926221 1.493469 5.372033 2.229059 10.677194-2.229059 14.332851-3.343588s9.272887 5.817845 0 8.180647-17.431243 2.229059-16.18297 9.941604c0.891624 5.349742 1.248273 10.721775 3.053811 10.989262a13.55268 13.55268 0 0 0 1.916991 0 13.374356 13.374356 0 0 0 1.359726 0c1.850119-0.156034 7.088408 1.538051 7.244443 4.302085a3.076102 3.076102 0 0 1-0.847043 2.229059c-0.312068 1.292854-6.152204-0.222906-8.091485-0.75788s-5.483486-0.869333-10.788647 3.00923c-1.382017 1.627213-6.687178-2.050735-0.958495-4.948512 2.496546-1.248273 3.789401-1.738666 4.346665-2.697161 1.760957-3.00923 0-8.002323-0.691008-9.607246-1.11453-2.674871-1.916991-4.458119-3.878563-5.617229-2.563418-1.382017-6.107622-0.802461-8.916237-2.229059a3.120683 3.120683 0 0 1-1.538051-1.404308 3.410461 3.410461 0 0 1-0.178325-1.983862 5.26058 5.26058 0 0 1 1.292855-3.677948 4.212922 4.212922 0 0 1 2.251349-1.047658zM523.695183 607.686136s-8.492716 22.58037-7.333605 34.795615 2.875486 6.910084 2.875486 6.910084 2.451965-29.780232 6.910084-35.085393-1.003077-10.744066-2.451965-6.620306zM263.073574 501.649787s-12.839381-2.920068-3.00923 4.636443 22.000815 6.375109 42.597323 37.202999a14.28827 14.28827 0 0 0 3.566494 7.333605 5.728682 5.728682 0 0 0 0.133744-0.891624 10.610322 10.610322 0 0 0-2.563418-7.467348 11.524236 11.524236 0 0 0-0.490393-6.575725c-0.75788-1.13682-9.852442-20.061533-40.23452-34.23835zM627.101242 484.731227h-0.222906c-12.438151-1.270564-20.061533-5.171417-22.93702-11.613399-3.990016-9.183724 3.789401-19.54885 4.12376-20.061533a2.229059 2.229059 0 0 1 3.544204 2.697162s-6.531144 8.760203-3.588785 15.603414c2.073025 4.725606 8.671041 7.823998 19.103038 8.916238 11.591108-1.069948 30.493531-7.021537 36.244503-15.603415a8.916237 8.916237 0 0 0 1.671795-5.171418 4.257503 4.257503 0 0 1-0.111453-4.14605 2.229059 2.229059 0 0 1 2.229059-1.003077 2.229059 2.229059 0 0 1 1.827829 1.560342 14.132236 14.132236 0 0 1 0.512683 2.451965 41.148434 41.148434 0 0 0 24.876302 16.294423c14.979278 2.652581 28.353634-6.687178 38.651887-26.860164a2.229059 2.229059 0 0 1 0.624137-0.75788 50.39903 50.39903 0 0 0-3.611076-7.957742 2.229059 2.229059 0 0 1 3.811691-2.229059l8.626459 12.727928a2.231288 2.231288 0 1 1-3.700238 2.496547l-1.159111-1.738666a2.607999 2.607999 0 0 1-1.225982 0.75788c-9.807861 18.679517-22.067687 28.286762-36.400538 28.531958-13.374356 0.178325-25.433566-8.314391-31.385154-15.04615a16.339004 16.339004 0 0 1-1.448889 2.652581c-6.932374 10.253673-27.43972 16.405876-39.766417 17.498115zM544.2694 742.566512l8.760203 17.275209v3.722529s22.446627 29.624198 42.575032 38.986247 52.917867 34.661872 57.665763 41.126143c2.050735 0.75788 7.15528 4.302084 9.963895 3.098392s-3.923144-5.26058-3.923145-5.26058-2.340512-0.178325-20.061533-17.007722c-6.687178-6.464272-30.538112-22.290593-33.435889-23.070763s-41.638827-26.32519-46.810244-39.588093c-0.624137-1.003077-10.209091-14.377432-12.883963-19.281362s-1.850119 0-1.850119 0zM775.512008 866.034104s-2.385093 6.687178 2.808614 4.458119 17.832474-8.626459 51.268363-40.123067 43.24375-40.658041 50.800261-43.020844c3.455042-1.092239 28.687993-18.991585 28.687993-18.991585s4.859349-4.212922-1.627214-5.059964c-6.887793 3.120683-35.664948 22.647242-37.314452 23.516575s-44.425151 37.894007-53.920943 48.192261-38.763341 30.159172-40.702622 31.028505zM403.392855 458.116259s-1.939282 6.040751 2.385093 3.878564 47.657287-34.082316 111.296929-33.212983c1.359726 0 3.455042-1.292854 0-3.677948s-56.083131-4.52499-113.682022 33.012367zM413.535074 489.189346s-3.74482 8.581878 3.031521 4.591862 60.697284-37.24758 87.379123-41.415921c1.49347-1.159111 4.257503-3.410461 0-4.792478s-51.870209 16.18297-90.410644 41.616537z" fill="#231815" p-id="3256"></path><path d="M489.033311 316.036022s-6.330528 9.78557-4.881639 57.799507c-0.222906 7.779417 3.165264 22.736404-15.246766 46.030074s-15.603415 70.750341 8.336682 112.456039 64.977077 66.448257 78.017074 71.909452c2.674871 1.225983 7.645673-0.289778 3.76711-5.26058-2.385093-2.229059-39.588092-21.131482-55.993968-43.778724-1.538051-3.120683-50.577355-48.326005-37.202999-111.965646 1.738666-3.232136 3.031521-16.450457 13.084577-29.535036s9.919314-29.780232 10.365126-32.655718-1.003077-45.160741 1.716376-51.268363a21.555003 21.555003 0 0 0 1.003076-12.7948s0.066872-2.095316-2.964649-0.936205zM635.727701 625.808388h-7.489639s-7.757126 5.750973 33.948573 14.66721 108.800383-1.047658 138.446871-15.826321c3.232136 0.75788 36.668025 4.747896 58.468224-6.798631s25.990831-6.352819 74.963263-51.000876 39.47664-97.298437 38.830212-105.924896a618.296458 618.296458 0 0 0-19.21449-96.005582c-11.568818-38.807922-16.026936-49.462825-16.026937-49.462825s25.901669-54.500499 29.33442-106.281546c0.156034-3.165264 2.875486-74.495161-2.229059-78.373724-2.028444 0-1.025367 8.069195-1.025367 8.069195s1.738666 51.268363-0.423521 59.382139c-0.423521 5.171417-3.74482 44.870963-14.243689 68.030888-0.847043 3.722529 0.289778 4.012307-15.960064 43.422075-0.423521 10.788647-1.582632 7.043827 0.869333 15.246765s11.925467 33.970863 15.380509 48.704945 45.851749 126.00872-11.791724 180.241732-81.093176 67.295299-139.338494 65.133112c-20.128405 7.445058-94.333788 36.422828-162.498421 6.77634z" fill="#231815" p-id="3257"></path><path d="M888.235535 410.659588s-8.26981 0-2.22906 5.817844c6.976955 2.808615 72.555879 31.942419 109.223904 57.598892 2.585709 1.939282 9.919314 1.292854 2.808615-4.302085s-63.104668-39.276024-109.803459-59.114651zM879.007229 427.266079s-9.874733-0.75788-3.611076 5.23829c8.425844 3.321298 13.574971 0 61.477455 35.531204s75.921758 58.735712 75.921758 58.735712 7.556511 2.229059 3.232136-3.722529-88.114713-76.36757-137.020273-95.782677zM858.566756 236.792965a199.523095 199.523095 0 0 0 25.232951-34.305222c12.304407-20.908576 53.720328-65.356018 74.205382-63.19383 2.808615 0 1.51576 3.232136 1.515761 3.232136a124.13631 124.13631 0 0 0-45.093869 28.977771c-5.750973 6.932374-24.051549 24.207584-39.186862 53.096191-1.13682 1.248273-3.365879 3.856273-5.795554 6.553434a58.111575 58.111575 0 0 1-7.578801 7.467349c-3.74482 2.697162-3.299008-1.827829-3.299008-1.827829zM870.202445 231.287189s26.748711-25.455857 56.729558-34.505837c4.970802-0.534974 10.788647 2.362803-1.382016 4.970802s-46.163817 24.787139-52.962448 32.410521c-3.142974 1.671794-4.235213-1.181401-2.385094-2.875486z" fill="#231815" p-id="3258"></path><path d="M879.007229 231.287189s16.873979-11.635689 29.71336-12.817091-2.920068 4.837059-2.920067 4.837059-18.122252 6.375109-23.940097 10.030767-4.212922-0.423521-2.853196-2.050735zM887.901176 233.449376s9.339758-5.171417 13.129159-3.76711-0.624137 4.302084-0.624137 4.302085a15.269056 15.269056 0 0 1-9.272886 1.738666c-4.747896-0.869333-3.232136-2.27364-3.232136-2.273641zM654.563252 232.691496s-6.464272 4.101469 0 5.171418 33.435889-2.786324 55.213798-12.705638 57.955541-29.780232 59.605045-30.359787c0.646427 1.649504 0.691008 2.474256 0.423521 6.508853 1.025367 3.990016 7.378186 16.18297 10.52116 19.1922s17.832474 5.951588 29.33442-2.229059c5.461195-2.674871 14.243689-10.966972 20.061533-21.644166s8.916237-11.145296 8.916237-11.145296v-1.292854h-5.171417s-12.371279 14.823244-14.66721 20.418183-19.281363 13.374356-23.449704 12.661056c-0.713299-1.694085 2.585709-4.88164 2.585709-4.88164s1.582632-5.617229-3.588786-3.321298c-2.229059 2.006153-3.878563 7.489639-6.330528 7.779417s-6.040751 0-6.687178-4.458119a23.739481 23.739481 0 0 1 2.006154-12.527313c1.159111-1.716376 1.292854-6.174494-3.588786-1.560341a25.411276 25.411276 0 0 0-1.872409 5.461195s-1.292854 4.012307-3.00923-2.229059-2.229059-3.142974-1.292855-12.348988 11.145296-25.901669 11.145296-25.901669 4.034597-12.661057 21.287516-17.542696c1.003077 0 0.713299-1.582632-5.750972 0a35.508914 35.508914 0 0 0-6.687178 0.423521s-16.695654 14.823244-17.408953 21.867071c-2.429675 4.302084-5.750973 15.80403-6.887793 18.969294s-46.163817 26.169156-61.566617 34.082317-38.317529 11.836305-53.140773 11.613398zM832.241566 154.60755s5.171417 2.585709 3.677948 23.070764c0.267487 1.51576 4.302084 1.315145 4.302084-4.725606s2.385093-17.275209-5.817845-19.415106-2.162187 1.069948-2.162187 1.069948zM786.50127 113.191629h-4.302084l-21.354388 15.737159s-0.869333 7.779417 4.302084 3.900853 15.960064-13.820167 19.415106-14.466594c0.267487-1.716376 4.636443-3.00923 4.636444-3.00923l16.138389-8.581878s2.050735-2.697162-1.827829-1.983863a114.038672 114.038672 0 0 0-17.007722 8.403553zM773.884794 135.192444s-6.040751 6.687178 2.585709 5.171418c5.840135-3.00923 14.020783-7.445058 14.020783-7.445058v-2.229059s14.578048-7.266733 18.768679-8.113776 0-3.031521 0-3.031521a4.926221 4.926221 0 0 0-3.878563 0c-1.604923 0.980786-14.444304 6.263657-15.313637 7.222152s-2.808615-0.200615-2.808615-0.200615-11.435074 7.868579-13.374356 8.626459zM577.125733 140.542186s21.42126 2.518837 23.226798 14.800954c0 2.229059-5.684101 2.229059-14.734082-1.069948-9.941604-0.289778-12.081501-3.098392-12.081501-3.098393s-1.025367-4.458119 4.814768-2.875486c3.076102 0.401231 2.229059-2.808615-1.738666-2.006154s-3.165264-6.865503 0.512683-5.750973zM678.213571 121.394567s-10.342835 10.788647-6.999246 12.616476 8.916237-8.626459 8.2921-12.616476c-0.222906-0.579555-0.824752-0.73559-1.292854 0zM689.113671 126.142464s-15.42509 9.584955-12.727929 16.071517 16.94085-4.212922 18.010799-6.040751c0 0 4.458119-3.031521 5.750973-1.627213 0 0.111453 0.312068 0.423521 0.601846 0.423521s0.646427-0.468102 0.780171-0.691008a3.856273 3.856273 0 0 0 0-4.190631 2.942358 2.942358 0 0 0-1.983863-0.824752c-5.617229-0.423521 1.382017-3.120683 1.382017-3.120683s2.496546-5.728682-3.00923-4.101469a28.487377 28.487377 0 0 0-8.804784 4.101469zM734.296702 34.884777s-0.646427-6.910084 4.324375-2.229059c3.031521 5.193708 6.508853 10.788647 6.508853 10.788647s0.601846-4.948512 26.748711-25.010045c3.677948-1.582632 8.26981 0.713299 3.38817 3.588786-3.588785 4.012307-20.418183 13.864749-25.678762 23.940096-1.582632 3.521914 1.025367 2.875486 2.385093 1.51576s15.737158-6.687178 18.768679-6.263656 4.747896 4.235213-1.092239 5.327451-12.861672 4.458119-14.310561 6.040751 1.025367 2.808615 2.22906 1.87241c1.51576-0.156034 7.066118-2.674871 7.422767-3.611076s6.107622-1.069948 1.783247 4.458118a41.772571 41.772571 0 0 1-7.690254 4.458119c-0.356649 0-1.939282 0.579555 1.092239 3.00923s15.491962 20.061533 15.380509 28.59883 0 5.215999 0 5.215999 3.276717 2.942358 2.853196 10.275963c-1.159111 0-3.142974-1.047658-3.74482-5.082255s-7.89087-24.987754-18.255995-35.664948a125.562908 125.562908 0 0 1-22.112268-31.229121z" fill="#231815" p-id="3259"></path><path d="M485.801175 215.862099s0-6.241366 3.455042-3.232136-1.51576 15.113022 46.163818 37.760264c9.049981 2.585709 9.919314 3.455042 10.788646 1.939281s-4.458119-6.263657-4.458118-6.263656-0.245197-5.171417 4.614153-2.362803a28.242181 28.242181 0 0 1 5.951588 8.403553s5.394323 0 4.948511-6.687177-1.069948-3.655657-4.101469-11.145297c-0.200615-3.677948 2.229059-3.455042 4.12376 0.222906s3.142974 6.241366 3.142974 6.241366a32.165325 32.165325 0 0 0 2.028443-14.444304c-1.092239-6.687178-8.069195-23.516575-13.530389-28.398215s0.289778-4.90393-14.956988-15.603415c-11.501946-3.455042-19.54885-7.757126-21.844781-7.489639s6.01846 0.579555 10.632613-3.142973c0.133744-7.779417 2.741743-21.153772 2.229059-30.649565s6.330528-18.679517 7.043828-19.259072 1.716376-5.617229-1.003077-7.333605-11.368202-8.626459-17.542696-8.626459c-1.292854 0-2.229059-4.90393 3.432751-3.74482a65.868701 65.868701 0 0 1 12.081501 4.168341s2.585709-1.292854-0.847043-3.455042-16.116098-12.7948-16.249842-14.243689 0-3.722529 3.722529-2.229059 15.113022 15.402799 16.405877 16.829397c0.490393 0.601846 2.607999 1.827829 1.471179-1.51576s-12.683347-24.006968-32.388231-33.926282c-6.040751-3.165264-7.623383-4.591862-4.591862-7.623382 3.588785 0.869333 18.41203 8.202938 24.006968 15.380508s13.084578 9.941604 15.960064 20.997739c1.159111 1.292854 0.73559 2.028444 2.229059-3.455042s4.324375-19.682593 10.209092-23.137635c2.741743 1.13682 2.741743 1.716376-3.299008 16.963141a127.591352 127.591352 0 0 0-7.333605 32.655718s0.713299 3.432751-4.324375 12.081501-6.174494 12.505022-6.687178 17.542696-1.716376 18.255995-1.003076 22.580371 1.716376 5.015383 11.345911 8.470425 18.122252 20.997738 18.122252 20.997738a58.31219 58.31219 0 0 0 16.829398 13.53039c11.791723 6.687178 27.038489 17.832474 52.628089 17.252919 4.458119 0.847043 3.611076 5.884716-1.136821 4.16834a111.564416 111.564416 0 0 1-24.519651-2.741742c-9.651827-2.006153-34.23835-18.679517-34.238351-18.679517s-2.006153-1.315145-1.426598 1.850119c1.292854 3.611076 4.302084 8.069195 2.585709 21.287516a23.427413 23.427413 0 0 1-11.791723 17.988508s-14.66721 2.719452-20.997739-1.292854-16.53962-9.362049-16.539619-9.362049-15.960064-8.180647-20.574217-13.797877-10.966972-13.55268-10.766357-15.469671zM359.614131 239.824486s-3.878563-6.486562 3.655657-3.900854c7.333605 6.263657 15.759449 16.18297 62.123881 36.690316s42.352126 10.119929 63.862548 32.789461c-1.51576 2.429675-6.820921-1.51576-6.820921-1.51576a158.374661 158.374661 0 0 0-40.702622-19.415106c-21.733328-6.263657-70.259948-28.487377-82.118543-44.648057z" fill="#231815" p-id="3260"></path></svg>