<?xml version="1.0" standalone="no"?><!DOCTYPE svg PUBLIC "-//W3C//DTD SVG 1.1//EN" "http://www.w3.org/Graphics/SVG/1.1/DTD/svg11.dtd"><svg t="1681472061025" class="icon" viewBox="0 0 1024 1024" version="1.1" xmlns="http://www.w3.org/2000/svg" p-id="2841" xmlns:xlink="http://www.w3.org/1999/xlink" width="200" height="200"><path d="M709.44 275.968a1299.52 1299.52 0 0 0-261.28-26.848c-86.72 0-174.624 9.024-261.28 26.848-11.2 2.304-20.352 10.432-23.968 21.344-46.144 140.192-46.144 282.336 0 422.528a32 32 0 0 0 23.968 21.312 1302.08 1302.08 0 0 0 261.28 26.848 1299.84 1299.84 0 0 0 261.28-26.88c11.264-2.304 20.384-10.432 24-21.312 46.112-140.192 46.112-282.336 0-422.528a32.096 32.096 0 0 0-24-21.312z m-6.432 433.856a1254.272 1254.272 0 0 1-509.664 0c-44.192-134.176-44.192-268.32 0-402.528a1253.12 1253.12 0 0 1 509.664 0c44.192 134.176 44.192 268.32 0 402.528z" fill="#fff" p-id="2842"></path><path d="M987.328 202.24a64 64 0 0 0-54.56-48.704C793.248 136.576 651.744 128 512.16 128c-139.552 0-281.056 8.576-420.576 25.504A63.968 63.968 0 0 0 37.056 202.24a1325.728 1325.728 0 0 0 0 619.52 63.872 63.872 0 0 0 54.528 48.672c67.232 8.192 134.912 14.176 202.592 18.432-3.648 2.336-6.016 4.704-6.016 7.136 0 17.696 100.288 32 224 32s224-14.304 224-32c0-2.432-2.368-4.8-6.016-7.136 67.68-4.256 135.36-10.24 202.56-18.432 26.56-3.2 48.384-22.624 54.56-48.672a1324.896 1324.896 0 0 0 0.064-619.52z m-62.272 604.704a3417.568 3417.568 0 0 1-825.76 0c-46.816-196.64-46.816-393.28 0-589.888a3414.304 3414.304 0 0 1 825.76 0c46.816 196.608 46.816 393.248 0 589.888z" fill="#fff" p-id="2843"></path><path d="M848.192 384a48 48 0 1 0-0.032-96.032A48 48 0 0 0 848.192 384z m0-64c8.8 0 16 7.2 16 16s-7.2 16-16 16-16-7.2-16-16 7.168-16 16-16zM880.192 704h-96a15.968 15.968 0 1 0 0 32h96a16 16 0 0 0 0-32zM912.192 608h-96a15.968 15.968 0 1 0 0 32h96a16 16 0 0 0 0-32zM912.192 512h-96a16 16 0 1 0 0 32h96a16 16 0 0 0 0-32zM432.16 377.728l-146.752 11.488a22.592 22.592 0 0 0-18.56 17.632L257.088 496c-0.448 8.8 6.368 16 15.136 16a16.832 16.832 0 0 0 16.576-16l5.344-60.64a21.408 21.408 0 0 1 18.048-17.472l119.968-8.224c8.8-0.32 16-7.744 16-16.576s-7.168-15.712-16-15.36z" fill="#fff" p-id="2844"></path></svg>