<?xml version="1.0" standalone="no"?><!DOCTYPE svg PUBLIC "-//W3C//DTD SVG 1.1//EN" "http://www.w3.org/Graphics/SVG/1.1/DTD/svg11.dtd"><svg t="1688550073446" class="icon" viewBox="0 0 1024 1024" version="1.1" xmlns="http://www.w3.org/2000/svg" p-id="2323" xmlns:xlink="http://www.w3.org/1999/xlink" width="200" height="200"><path d="M897.536 264.704H655.36l142.848-145.408c10.752-10.752 10.24-28.16-0.512-38.912-10.752-10.752-28.16-10.24-38.912 0.512L578.56 264.704H448.512L267.776 80.896c-10.752-10.752-28.16-10.752-38.912-0.512-10.752 10.752-10.752 28.16-0.512 38.912l142.848 145.408H129.024c-55.296 0-100.864 45.056-100.864 100.864v481.792c0 55.296 45.056 100.864 100.864 100.864h768.512c55.296 0 100.864-45.056 100.864-100.864V365.568c0-55.808-45.056-100.864-100.864-100.864z m46.08 582.656c0 25.088-20.48 45.568-45.568 45.568H129.024c-25.088 0-45.568-20.48-45.568-45.568V365.568c0-25.088 20.48-45.568 45.568-45.568h768.512c25.088 0 45.568 20.48 45.568 45.568v481.792z" p-id="2324"></path><path d="M653.312 582.656L415.744 445.44c-8.704-5.12-18.944-5.12-27.648 0-8.704 5.12-13.824 13.824-13.824 23.552v274.432c0 9.728 5.12 18.944 13.824 23.552 4.096 2.56 9.216 3.584 13.824 3.584 4.608 0 9.728-1.024 13.824-3.584l237.568-137.216c8.704-5.12 13.824-13.824 13.824-23.552s-5.12-18.944-13.824-23.552zM429.568 696.32v-179.2l155.136 89.6L429.568 696.32z" p-id="2325"></path></svg>