<?xml version="1.0" standalone="no"?><!DOCTYPE svg PUBLIC "-//W3C//DTD SVG 1.1//EN" "http://www.w3.org/Graphics/SVG/1.1/DTD/svg11.dtd"><svg t="1688550103093" class="icon" viewBox="0 0 1024 1024" version="1.1" xmlns="http://www.w3.org/2000/svg" p-id="2464" xmlns:xlink="http://www.w3.org/1999/xlink" width="200" height="200"><path d="M725.333 364.32l105.387-52.459A74.667 74.667 0 0 1 938.667 378.7v270.186a74.667 74.667 0 0 1-109.195 66.198l-104.139-54.304V704c0 64.8-52.533 117.333-117.333 117.333H202.667c-64.8 0-117.334-52.533-117.334-117.333V320c0-64.8 52.534-117.333 117.334-117.333H608c64.8 0 117.333 52.533 117.333 117.333v44.32z m0 71.499v152.768l133.739 69.738a10.667 10.667 0 0 0 15.595-9.45V378.699a10.667 10.667 0 0 0-15.424-9.547l-133.91 66.667z m-64 268.181V320A53.333 53.333 0 0 0 608 266.667H202.667A53.333 53.333 0 0 0 149.333 320v384a53.333 53.333 0 0 0 53.334 53.333H608A53.333 53.333 0 0 0 661.333 704zM288 469.333a64 64 0 1 1 0-128 64 64 0 0 1 0 128z" p-id="2465"></path></svg>