<?xml version="1.0" standalone="no"?><!DOCTYPE svg PUBLIC "-//W3C//DTD SVG 1.1//EN" "http://www.w3.org/Graphics/SVG/1.1/DTD/svg11.dtd"><svg t="1698059034215" class="icon" viewBox="0 0 1024 1024" version="1.1" xmlns="http://www.w3.org/2000/svg" p-id="18940" xmlns:xlink="http://www.w3.org/1999/xlink" width="200" height="200"><path d="M771.015736 81.386006 231.581538 81.386006C221.972715 81.386006 214.182745 89.175976 214.182745 98.784799l0 859.518593c0 9.608823 7.78997 17.398793 17.398793 17.398793l539.434198 0c9.609846 0 17.398793-7.78997 17.398793-17.398793L788.414529 98.784799C788.413506 89.175976 780.624559 81.386006 771.015736 81.386006zM747.561942 915.049878c0 9.609846-7.788947 17.398793-17.398793 17.398793L272.434126 932.448671c-9.609846 0-17.398793-7.788947-17.398793-17.398793L255.035333 797.388084c0-9.609846 7.788947-17.398793 17.398793-17.398793l457.729023 0c9.609846 0 17.398793 7.788947 17.398793 17.398793L747.561942 915.049878zM257.081287 731.456192 257.081287 266.85174c0-8.109139 7.78997-14.682789 17.398793-14.682789l453.638138 0c9.609846 0 17.398793 6.57365 17.398793 14.682789l0 464.603429c0 8.110162-7.788947 14.683812-17.398793 14.683812L274.479057 746.138981C264.871257 746.138981 257.081287 739.565331 257.081287 731.456192zM749.607896 196.36044c0 9.608823-7.788947 17.398793-17.398793 17.398793L270.387149 213.759233c-9.608823 0-17.398793-7.78997-17.398793-17.398793L252.988356 143.706789c0-9.608823 7.78997-17.398793 17.398793-17.398793l461.821954 0c9.609846 0 17.398793 7.78997 17.398793 17.398793L749.607896 196.36044z" fill="#4D5DA9" p-id="18941"></path><path d="M413.557898 636.254881l184.278058-121.521487c7.155724-3.655097 8.276907-13.984096-2.471512-17.940971L413.557898 385.900691c-7.888176 0-14.284851 6.394629-14.284851 14.284851l0 221.783465C399.273047 629.859229 405.669722 636.254881 413.557898 636.254881zM423.297662 437.126266c0-5.181379 4.201367-9.381722 9.382745-9.381722l119.408016 72.831872c7.058541 2.598362 6.323021 9.382745 1.623465 11.783672L432.680408 592.172755c-5.180356 0-9.382745-4.199321-9.382745-9.382745L423.297662 437.126266z" fill="#4D5DA9" p-id="18942"></path><path d="M630.187604 861.941003c0 12.712535-7.904543 23.014937-17.65556 23.014937L390.066254 884.95594c-9.751017 0-17.65556-10.302402-17.65556-23.014937l0 0c0-12.713558 7.904543-23.01596 17.65556-23.01596l222.46579 0C622.283061 838.925043 630.187604 849.228468 630.187604 861.941003L630.187604 861.941003z" fill="#3E64AE" p-id="18943"></path></svg>