<?xml version="1.0" standalone="no"?><!DOCTYPE svg PUBLIC "-//W3C//DTD SVG 1.1//EN" "http://www.w3.org/Graphics/SVG/1.1/DTD/svg11.dtd"><svg t="1698058787816" class="icon" viewBox="0 0 1024 1024" version="1.1" xmlns="http://www.w3.org/2000/svg" p-id="2738" xmlns:xlink="http://www.w3.org/1999/xlink" width="200" height="200"><path d="M616.448 840.192c-7.168 0.512-14.336-0.512-20.48-3.072L404.48 759.296 231.424 875.52c-16.896 11.264-39.936 9.216-54.272-5.12-9.216-9.216-13.824-21.504-12.8-34.304l13.824-206.336c0-2.048-0.512-4.096-2.56-5.12L16.384 495.104c-12.8-10.24-18.944-27.136-15.36-43.52 3.072-16.384 15.872-29.184 31.744-33.28L230.4 367.616c2.048-0.512 3.584-2.048 4.096-3.584l71.168-194.048c7.68-22.528 32.256-34.304 54.784-26.112 9.216 3.072 17.408 9.728 22.528 18.432L491.52 337.408c1.024 1.536 2.56 2.56 4.608 3.072l203.776 8.704c16.384 0.512 31.232 10.752 37.888 26.112 6.656 15.36 4.096 33.28-6.144 46.08l-130.56 158.72c-1.536 1.536-1.536 3.584-1.024 5.632l54.784 199.168c3.584 12.288 1.024 25.6-6.144 36.352-7.68 10.752-19.456 17.92-32.256 18.944z" fill="#3366FF" p-id="2739"></path><path d="M885.76 882.688c-8.192 0-15.872-3.072-22.016-8.704l-62.464-60.416-87.552 15.36c-1.024 0-4.608 0.512-5.632 0.512-10.752 0-20.48-5.12-26.624-14.336-5.632-8.704-6.144-19.968-1.024-29.184l40.448-75.776-41.984-74.752c-5.12-9.216-5.12-20.48 0.512-29.696 7.168-10.24 19.456-15.872 31.744-14.336l87.552 13.312 61.44-61.44c6.144-6.144 13.824-9.216 22.528-9.216 15.36-0.512 28.16 10.24 30.72 25.088l13.312 84.48 79.872 36.864c14.848 6.656 21.504 23.552 15.36 38.4-3.072 6.656-8.192 11.776-14.848 14.848l-78.848 38.4-12.288 84.48c-2.56 14.848-15.36 26.112-30.208 26.112z" fill="#AEC9FF" p-id="2740"></path></svg>