<svg xmlns="http://www.w3.org/2000/svg" id="flag-icons-ac" viewBox="0 0 640 480">
  <path fill="#006" d="M640 480V0H0v480h640z"/>
  <path fill="#8fc5ff" stroke="#fff" stroke-width="4.3" d="M574.5 199.7c0 63.7-10.2 132.5-93 165.3-82.6-32.8-92.7-101.6-93.1-165.3z"/>
  <path fill="#366cc9" stroke="#000" stroke-width="4.3" d="M481.4 364.7A134.1 134.1 0 0 0 555 302h-7.8c-2.3-.4-79.4-7.8-88.7-11.7-7.9-2.8-38.4 2.7-52.4 7.8a133 133 0 0 0 75.4 66.5z"/>
  <path fill="#5d3100" stroke="#000" stroke-width=".4" d="M423.6 325.6h4.7c1.1 0 1.1 0 1.5-1.2.4-1.2 1.6-.8 2.4-.4.7.4 2.3 0 3-.8.9-.8.9-.8 1.7 0 .7.8 1.1.4 2 0 .3 0 1.9-.8 2.3-2 .3-1.1 1.5-1.5 2-.7.3.8 1 .8 1.9.8.7 0 .7.3.7 1.5 0 .8 0 1.2 2-.4 1.6 1.6 2 .8 2-.8 0-1.5 0-7.8-.8-8.2-.8-.4-1.2-3.1-1.6-5 0-4 0-4-3.9-6 0-1-.8-1.5-4-1.5.5-.4 0-1.5-.7-2-.8-.3-.8-.7 0-2.3.8 0 2.4 0 2.7-1.2.8-.7 3.2-.7 4.7 0 1.6.8 3.2.8 5.9 0l4.7-2.3c2-1.2 2.3-1.6 2.3-3.1 0-4-1.1-7.8-2-9.8-1-2-1-4-2.7-7.4-1.5-3.2-1.5-4-3-5.9-.9-.8-1.3-1.2-1.3-2.3a5.9 5.9 0 0 0-2-4c-3-2.7-3.8-11.7-5.4-18.3-.8-4 0-13-1.5-14.5-2.8-2-4-1.6-6-2.3-1.5-2-1.9-5.5-3.4-9-2 .4-3.2 2.3-4.3 3-1.2.9-1.6.9-1.6 2.8 0 1.6-1.2 4-2.7 7-1.6 3.2-5.1 2-7.9 6.3-5.4-6.6-5.4-8.6-5.8-10.5 0-2-1.2-2.4-4.3-5.1v-6c-2.8-2-4.3-1.5-5.5 0-1.2 1.2-2 3.1-3.9 4-.8 1.5-4 4.6-6.3 9 2.4 35.1 10.2 70.3 34 98.5z"/>
  <path fill="#ff0" stroke="#fff" stroke-width="4.3" d="M574.5 199.7c0-24.3-1.2-47.8-.8-68a248.7 248.7 0 0 0-92.3-16.9c-20.7 0-61.4 3.1-92.2 16.8.7 20.3-.8 43.8-.8 68z"/>
  <path fill="#cf6200" d="M393.5 227.4c1 1.6 2.9 4.3 3 6 .8-1.6 1.4-2.2 1.5-3.1 0-1 1.3-2.7.8-3.7-.4-1-.7-1.7.4-1s.9 2 .7 3.8c-.7 5-2.7 6-3 9.3 2.9 7 .7 9.6 4 16.6.5.2 1.8-.3 2.2-.2 1.8-1.2 3-.9 5.5-.3 2.4.5 3.7 2.2 3.7 3.8 0 1.6 0 1.9.6 2.8.5.8 1.4 2.3 1.3 3.4-.3 1 .1 1.6.5 2 .3.5-.2 1.8-.4 2.4-.3.6-.2 1.7 1 3.2 1.2 1.5 4 7.9 4 11.6 0 3.9.3 5.6 1.8 6.3 1.5.7 2 1.3 1.8 2.9-.2 1.5.7 10 .9 11.4.1 1.3.7 1 1.4 1.7.6.7 1 1.5 3 1.5 2.1 0 4-.2 5.2 0 2 2.5 3 6 3.5 8.1.5 2.2.4 5 1 5 .8 0 1.5 0 1.3-2.5-.2-2.6-.4-3-1.3-4.4-1-1.3-1.5-2-1-2.7.5-.8.6-2 .5-3.1-.2-1-.6-2.6 1.2-.6l2.7 3.3c.5.6.7 2 .6 3.3-.1 1.2 0 1.7.9 1 .7-.6 1.5.5 1 1.8-.3 1.3.3 2.1 1.5 2.6 1.2.4 1.7.7 2 1.6.3.8 1.3 1.3 1.3-.6a27 27 0 0 0-1.2-6.9c-.5-1.2-.9-3.8-1-5.4-.2-1.5-.4-1.9-1.1-2.1-.7-.3-1.4-1-1.5-1.6 0-.7-.7-1-1.1-1-.5 0-.9-.3-1.2-.8-.2-.6-.5-.6-1-.6-.5-.1-1.3.2-1.6-.6-.2-.8-.6-2-1.1-2.6-.5-.6-.9-.9-1-3.2 0-2.3 0-2.6-.8-3.4-.8-.8-2-3-2.5-3.8-.4-1-1-1.9-1 0 0 2 0 3 1.3 3.7 1.2.7 1.5.7 1 1.8-.6 1 0 1.7.2 2.4.3.7.6 1.4 0 2-.6.8-1.2.6-1.1-.5a6.4 6.4 0 0 0-.9-3.3c-.4-1-.9-1.6-1.5-1-.6.4-1.1-.2-.7-.6.5-.4.3-.7 0-1-.2-.2-.4-.6.1-1.2s.5-.9.2-2.3-2.5-8.6-3.5-10.2c-1-1.7-.9-2.8.3-1.3 1.3 1.6 2.5 3 2.7 4.4 0 1.4.3 2.2.7 2.6.5.5.7.4 1-.8 0-1.1 1-.7-.4-2.8-1.5-2.1-4.1-5.7-5.2-12.2-1-6.4-1.4-10.5-2.4-12.2-1-1.8-1.3-2.2-1.4-3.8-.1-1.6 0-3.3-.7-4.5-.7-1.2-1.2-1.4-1.3.4-.1 1.8 0 6 .6 6.6.6.7.2 2.6 0 3.5-.2 1-1.7 2.1 1.7 4.1 1.3.9 1 2 1 2.6-.3.8-.5.7-1.2-.4s-1.4-2.1-2.1-2.6c-.7-.5-.9-1-.7-2.5.2-1.5.3-2.5 0-3-.4-.4-.6-.1-.9.8-.2.8-.3 3-.9 3.6-.5.6-.5.2-.8-1.1-.4-1.3.1-3.4.8-5.7.7-2.2 1.2-4.8.6-7.8s-.4-4-2.6-6.5c-2.4-2.6-5.1-5-6.1-8.1-1.2-3.2-1.4-6-2.7-7.4a17 17 0 0 0-4-3.7v-4.7c0-1.2-.5-1.8-1.8-1.6-1.3.2-2.2 1.3-3 2.8-.8 1.6-1.4.9-2.6 3.5-1.2 2.6-2.6 4-2.6 6.8z"/>
  <path fill="#cf6200" d="M400.8 257.1c1 .6 1.7.9 3 .3 1.1-.6 2.5-2.4 4.3-.6a11 11 0 0 1 2.4 6.7c0 2.3 0 6.5 2.6 8.8 2.6 2.3 3.9 4.8 4 7.8a53.2 53.2 0 0 0 1.4 9c.4 1.2 1 2.6 1.9 3.5.7.8 1.4 3.1 1.5 5.5.1 2.5-.3 4.1 0 5.4.4 1.2 0 2.2-.8 1.7-1-.5-1.2-1-1.8-2-.6-1-1-.9-.5.7s2 3 3.3 3c1.3 0 1.7.1 2.6 1 .8.8.9 1.2 2.3 1.2s1.6 0 3 .4c1.3.3 1.3.2 2 0 .7-.3 1.4.4 1.9 1.7.4 1.3 1.7 5 1.7 6s0 2 .7 3c.7 1.1.5 2-.3 1.5-.7-.6-.8-.5-1.3-.3-.6.2-1-.2-1.9-.8-.8-.4-.3-.3-1.1-1.5-.8-1.3-1.3-1.7-1.3-.7s-.2 2-.8 1.4c-.6-.5-.9-.5-1.4 0-.5.6-.7 1-1.3 0-.6-1-1.3-1-2-1.3-.5-.1-.5-.1-.8-1-.3-1-1.3-1.2-2-1.2-.9 0-1.3-.4-1.4-1 0-.6-.6-1-1-1.3-.5-.3-.2-1-.3-1.7 0-.7-.7-.5-1.1-.6-.5-.2-.7-.1-.7-1.2 0-1-.5-1.3-.7-2-.4-.8 0-1.5.2-2.2.1-1 0-1.4-.6-2-.6-.8 0-1.5-1.7-3-1.7-1.3-2.5-.1-3-3.4a43.7 43.7 0 0 0-2.4-11.4c-1-1-1.5-2-2.5-2.3-1-.3-1.4 0-1.5-2-.1-2-.7-4.4-2-5.6l-2.3-2.2c-.6-.4-.9-1.4 0-3 .9-1.8.5-4.2.4-5.3-.1-1-.4-2.6-.2-3.8.2-1.2 0-2.7-.2-3.5-.3-.7-.7-1-.2-1.7zm24.5-28.8a22.1 22.1 0 0 1-4.7 4.6c-1.9 1.4-4.3 2.4-3 4.7 1.4 2.3 2.5 2.6 2.7 4.3.3 1.8.8 3.3 2 3.7 1.5.4 2 .2 2 3 0 2.7 0 4 1.2 5s1 2.2 1.6 4.7c.6 2.6.6 8.2 2.2 12 1.5 3.7 5.3 11 4.8 12.4-.4 1.5-.8 2.6.7 4.4 1.7 1.7 2.7 4.3 3 5.8 0 1.5.3 2 2 1.5a6 6 0 0 0 2.9-1.7c.5-.7 1.6-.6 3.1.2 1.5.9 3.8 1.6 5.2.9 1.3-.9 2-2.1 3.2-2.1 1.9-1.4 2.6-4.2 3-5 .4-.8.1-.8-.7-1.6-.8-.8-.4-2.2-.5-3.5-.2-1.4-.7-3.5-2.3-6.5-1.6-3-2.7-6.6-3.7-7.5-1-1-1.6-3.3-1.7-4.4-.1-1-1.4-2-2.2-2.8-.9-.9-1.6-2-2.6-6.8-1-4.7-1.6-8-1.6-9 0-.8-.2-.8-1-1.2-.8-.3-1.2-1.6-.8-2.2.1-.7-.4-1.4-.7-2.2-.2-.8 0-2.3.6-3.2.5-.8.4-3-.1-5-.5-1.8-1.1-3.4-3.3-3.8-2.1-.2-2.6-.8-3.3-2.6-1-1.7-1.8-4.8-2-5.5-.2-.7-.7-.8-2.3.6-1.6 1.3-2.2 1.7-2.2 4.3 0 1.7.4 2.2.9 3.1.5 1 .7 1.3 1 3.8.4 2.5 2.7 6.6-.2 9-3 2.2-2.6 2.8-2.5 4.4.2 1.7-.8 2.7-1.3.5-.6-2.4 0-3.7 1.6-4.8 1.6-1 3.1-2.5 2-4a19 19 0 0 1-1.7-6.6c-.1-1.6-.3-2.2-1.3-.9z"/>
  <path fill="#00b800" d="m401.2 262.8.3 3.3c0 1.1.4 3.5-.5 5.2-.8 1.7-.6 2.6 0 3.1h.1c1.7-.5 2-2.3 1.5-3.2a3.2 3.2 0 0 1 .2-3c.5-1 .5-1.5 0-2.2-.5-.7-.5-.7 0-2.6.6-1.7-.7-1.7-1.6-.6zm17.4 26.3c-.3-1.2-1.5-6-1.5-9-.1-3-1.5-5.5-4-7.8-2-1.8-2.4-4.7-2.6-7-1.5-.9-2-.5-1.9 1.2 0 1.8 2 2.6 1.7 5.3-.3 2.6-.3 2 1 3.3 1.1 1.2 1.7 2.6 1 3-.7.5-.7 1.5.2 1.8 1 .4 1 1.4.9 2.4-.1.9.9 1.1 1.3 1.7.6.7.6 2.4 0 3.3-.4 1-.5 2.5.4 1.7 1-.9 1.4 0 2.1 1.2.6 1 1.2.7 2 .5a8.5 8.5 0 0 1-.7-1.6zm13 23.6c-.4 1.2-1.1.9-1.7.3-.6-.6-1.3-.6-1-1.8.2-1.1 0-1.3-.7-1.9l-.3-.3h-.8c-1.5 0-1.6-.3-2.5-1.2a6.8 6.8 0 0 0-.5-.4v.8c0 1.1 0 .8-1 1.2-1 .3-1-1.1-1.2-2a3.4 3.4 0 0 0-.1-.6 4 4 0 0 1-3-2.9c-.5-1.6 0-1.7.6-.7s.7 1.3 1.6 2c.8.5 1.2-.5.8-1.7a5.2 5.2 0 0 1 0-1.3 2 2 0 0 0-.8-1c-1.8-.7-1.2-.8-1.2-2.2.2-1.3-.1-1.3-1.2-.6-1 .7-1 0-1-2.2 0-2-1.4-2-1.7-.6-.3 1.5-.9.5-1.4-1.5-.5-2-1.5-2.6-1.5-.6 0 1.7-.6 2-1.6 1.2l.4 3.1c.5 3.3 1.3 2 3 3.5 1.6 1.4 1.1 2.2 1.7 2.9.6.7.7 1.2.6 2-.3.8-.6 1.5-.3 2.2.3.8.8 1 .8 2.1 0 1 .2.9.7 1.2h.8l.7-1c1.3-1.2 3 0 3.7 1.7.6 1.5 1.3 1.9 2.3.6 1-1.2.6-1 1.6.1 1 1.2 1.4 1 1.4 1s1-.4 1.8.2c.7.6 1 .5 2.4-1.4 1.3-2-.6-1.4-1.2-.2zm3.8-55.8c.4-3 .1-5.9 1.3-7 1.3-1 2.7-3.3 2.7 1.4-.2 4.6-.4 4.3-1.3 5.4-1 1.1-1.8 1.4-1 3.1 1.1 1.7 1.2 2 1.1 4.6-.1 2.7-.1 3.9.9 5.2 1.1 1.4 1.4 1.4 1.7 3a8.4 8.4 0 0 0 2.4 4.5c1.2 1.2 2.6 4.2 2.7 6.4.2 2.2 2 2.7 3.8 4.3 1.8 1.5-.4 2.5-1.7 1.8-1.4-.6-.9 0-1.7 1-.8 1-1 1.1-1.7-.6-.7-1.6-3-2.7-4.1-3.1-1.1-.4-2-2.2-3-4a5.2 5.2 0 0 0-3.9-2.6c.4 1.1.6 2 .5 2.4-.4 1.5-.8 2.6.7 4.4 1.7 1.7 2.7 4.3 3 5.8 0 1.5.3 2 2 1.5a7.2 7.2 0 0 0 2.9-1.7c.5-.7 1.6-.7 3.1.2 1.5.8 3.8 1.6 5.2.8 1.3-.9 2-2 3.2-2 1.9-1.4 2.6-4.3 3-5 .4-1 .1-1-.7-1.7-.8-.8-.4-2.2-.6-3.5 0-1.4-.6-3.4-2.2-6.4-1.7-3-2.7-6.6-3.7-7.5-1-1-1.7-3.3-1.7-4.4-.2-1-1.4-2-2.2-2.9-.9-.8-1.7-2-2.6-6.7-.7-3.7-1.4-6.6-1.5-8-1 1.5-1.7 2-2 .8-.5-1.2-.9-1.8-1.5-1-.5.8-.7-.8-.7-1.5s0-.7-.9-.7c-.8 0 0-1-.3-3.2-.3-2-.7-2.2-.9.2-.3 2.4-1.7 4-1.1 4.4.5.6.2 1.7-.3 3.3a5.1 5.1 0 0 0 0 3.6c.4 1-.2 3.2-.4 4.9-.3 1.7 1.1 3.5 1.5.6zm-24.8-24.2c-1 0-1.7 1-1.1 4 .4 2-1 1.6-1.6.6-.5-1-1-3-2-4.7-1.1-1.7-.6 1.1-.7 2.8-.2 1.7.9 1.7 1.8 3 1 1.4.2 1.9-.8 1.9s-.7 2.2-.4 3.6c.3 1.5-.3 1.8-1 .6-1-1.3-.3-3-.2-5.4.2-2.3.3-1.8-1.2-2.3-1.5-.6-1.3-.9-.6-2.2.5-1.4 1-2 .3-2.7-.6-.7-.5-1.1.6-1.2 1-.2.6-1 1.6-1.2 1-.3 1.4 0 1.5-1.7.1-1.5.6-2.3 1.7-1.9.7 2.3 1.5 5.8 2.1 6.8zm13.7 16c0 2.8 0 4 1.2 5s1 2.2 1.6 4.7c.6 2.6.6 8.2 2.2 12l1.8 4a7.7 7.7 0 0 0 2-2.6c.3-.8-.9-2.8-1.8-4.3-1-1.8.1-2.3 1-4.4 1-1.9 0-2-1.6-2.6-1.4-.5-1.4-2-2.2-4.1-.8-2.2-.7-3.1-.2-4.4.5-1.2.2-2.1-.9-2.4-1.1-.3-.8-1-.4-2.4.4-1.3.7-1.6-1-1.3-1.2.4-1.5.7-1.9 1z"/>
  <path fill="#5d3100" d="M439.9 254.3c-.2 1.6-.2 2.5-.6 3-.4.5-.1 1.3.3 2.2.5.8.6 1.8.3 3.4-.4 1.5.2 2.6 1 3 .8.4 1.2 0 1 2a5.8 5.8 0 0 0 1.7 4.7c1 .8 1.7 2.1 1.5 3 0 .8.7 1.5 1.7 2 1 .4.8.5.8 1s.4.6 1.4.9c1 .3 2 .9 3.2 2.4 1.2 1.6 3 2.3 2.7.7-.3-1.5 0-2.8-1.6-3.5-1.7-.8-2.9-4.7-3.5-7.4a17 17 0 0 0-4-7.1c-.3-2 0-2.9-1.2-3.8a4 4 0 0 1-1.7-3.2c0-.8-.6-2-1.2-2.4-.5-.3-.8-.9-.8-1.8 0-.8-.8-.7-1 1z"/>
  <path fill="#00d860" d="M432.7 327a39.2 39.2 0 0 0 9.7-2.8c1.7 1.1 4.5 2.6 5.7 2.6-2.3.5-3.9.3-4.4-.2.3.7 1 1.9 1.6 2-2.3 0-4.8-.6-5.6-1.4-2 .8-5.2 1-7-.2zm4.3 3c.9.3 5.2 1 5.8 1-1.4 1.2-.2 2.4 2.1 2.2-1 .2-2.4.6-1.5.8a24.4 24.4 0 0 0 8.9-1.8c-2 2.5-11.4 4.8-15.3-2.2zm4 6.1a9 9 0 0 1 5.3.3c-1.4.6-4.5.6-5.4-.2z"/>
  <path d="M445.3 336.1c2-.3 8 1 10-.2-.7 1.9-4.3 2.2-5.7 1.7-1.3-.3-2.5-.8-3.4-.8.6-.3-.2-.3-1-.7z"/>
  <path fill="#00d860" d="M447.4 339a30.5 30.5 0 0 0 9-1.1c1.7.6 5.4 1.6 6.2 1.5-1.7 1-5 .4-6 0a10.9 10.9 0 0 1-9.2-.4z"/>
  <path fill="#00d860" d="M450 339.9c2.3.5 4.3.2 6.5-.5.7.2 2.3.6 3.9.6 1 .5 2.3 1.3 3.7 1.5a16.6 16.6 0 0 1-7.5-.7 19.2 19.2 0 0 0-8 1.5 3 3 0 0 1 1.5-2.3z"/>
  <path d="M447.4 328.6c1.7.5 8.2.2 11.3-1.3 1.4-.7 2.2.4.7.8-5.2 2-9.5 2.6-12.5 1-1.2-.6-1.4-1.2.5-.6z"/>
  <path fill="#00d860" d="M478.6 319.8c-7.9 3.7-13 4.8-23.9 1.4-1-.2-1.7 0-.6.7a40 40 0 0 0 8.5 2.6c1.4.1.9.7 0 1-.8.2-1 .8.1.4 1.1-.5 7.8-.7 10.5.7 1.1.7 1.4.5 1.3 0-.1-.4.5-.7 1.4-.8.8-.1 1.4-.4.7-.6-.7-.3-.8-.5-.3-.7.5-.3.6-.6-.2-.7-.7-.2-1.3-.4-.6-.7a9 9 0 0 1 2.6-.7c.2-.5-.1-2 .5-2.6z"/>
  <path d="M465.6 320.7a26 26 0 0 0 17-6c1.6 1 3.7 2 4.9 2.2 1.1.2 2 1.2.3 1.2s-4-.7-5.2-1.2a29.5 29.5 0 0 1-17 4.3c-1.1 0-1.4-.5 0-.4z"/>
  <path fill="#00d860" d="M452.3 296.3c1.6 1.1 4.3 2.9 7.8 2.6a17 17 0 0 0 5.7 3c-2.4.8-5 1.7-5.6 2.4-1-1-2.5-.8-2.8-1.4-1 1-.9 1.3-.2 1.8a22 22 0 0 0 7 .9c1.2-.4 1.7.7.6 1-2.7 1-8 0-9.8-2.9-2-2.9-3.5-4-8.5-1.3-.5-1.5-.5-1.7-1.5-1.7s-2.8-1.3-1.4-1.3 5.4-.6 8.7-3z"/>
  <path fill="#00d860" d="M453.6 303c-1 .1-3.3 1.4-4.1 1.5-.9.2-2.4 1.4-.9 1.4 1.7 0 3.7-1.7 4.8-1.7 1.1 0 1.2-1.5.2-1.3zm5 5c-.7.2-3.3.8-4 .8-.7 0-1.5 0-1.4.6.1.5.3.9-.9.7-1-.2-1.9.3-2.1.6-.3.3-.5.6.6.7 1 0 1.6.3 2.9-.4 1.2-.6 2.3-1.3 3.6-1.4 1.3 0 2.6-1.8 1.2-1.5z"/>
  <path d="M454.9 311.1c1.1.9 6.6 2.6 8.5 2.6 2-.1 1.7.7.2 1a12.2 12.2 0 0 1-9.6-2.7c-1.2-1 0-1.4.8-.9z"/>
  <path fill="#00d860" d="M480.8 314a21 21 0 0 1-10.2.3c-1.7-.6-3.3-.6-2 .6 1 1.1 4.8 1.8 7 1.3-7.6 1.7-9.6 1.6-11.4 1.3a38 38 0 0 0-7-.2 6 6 0 0 1-3.3-.4c-.7-.5-.9-1.1 1.1-.9 2 .1 2.3-.2.6-.5-1.8-.3-4.1.4-1.8 2 2.4 1.4 7.4-.2 10.7.8a18.6 18.6 0 0 0 16.7-3.8c.3-.2.9-1-.4-.6zm-20.6-6.3c.2.6.2 1 0 1.4-.2.4-.1.9.5.4s1-1.2 1.8-.8c.7.3 2.3.3 3 .2.8 0 1-.3 0-.7a7.4 7.4 0 0 0-2.9-.6c-.6.1-1.4 0-1.9-.3s-.6 0-.5.4z"/>
  <path fill="#00d860" d="M471 309.7c-.8 0-2.4-.6-3.1-1-.8-.3-2-.3-1.2 1 .9 1.2 4.6 1.7 6 1.2 1.3-.6.8-1.2 2-.4 1.4.8 2.7 1.3 3.7 1.3s1.3 0 .3-.6-1.6-.7-1.8-1.2c-.2-.5-.2-.9.9-.5 1 .3 2 .8 2.8.4.8-.4 2.2-1.3 3.5-1.3l.2-.8c-1.8 0-3 .5-3.5.6-.4.2-1.4.4-2.4.2s-2.2-.3-2.5-.5c-.4-.3-.3-.5.5-.6.8-.2 1-.7 0-.6-1 .2-4.2.2-5.8-.3-1.5-.5-2.2-.6-2.8-.3-.7.2-.6 1 .3 1 1 0 3.2.3 4 1 .6.7.6.7-.2.4-.9-.4-2.5-.2-.9 1z"/>
  <path fill="#00d860" d="m484.3 307.8-.3.8c1.9 0 6.4.4 8 1.3 1.4-1.1 1.1-1.5 2-1.2 1 .3 2.4.5 3 .3a2 2 0 0 1 1.5-.2c.6 0 2-.2 2.7-.6.8-.5 2.4-1 3.3-1 .8 0 2-.3.3-.6-1.6-.3-4.2.3-5 .6-1 .3-3.5.5-5 .5s-3.6.7-5.3.3c-1.8-.4-4.2-.2-5.3-.2z"/>
  <path d="M507.9 307c-3 2.2-6.8 2.7-11.1 3-1.3 0-.9.4.2.5 4.6.5 9.8-1.2 11.6-3 .5-.6.4-1.4-.7-.6z"/>
  <path fill="#00d860" d="M487.1 312.2a47 47 0 0 1 7.3 1.7c1.2-.2 1.5-.4 1.3-.9-.3-.4-.4-.8 1.7-.6h7.5c.8-.3 2.3-1.5 3-1.5-1.8 0-9.5.4-10.4.3-1 0-1.5 0-2.1.4-.6.3-.9.5-1.7.1-1-.3-2.1-.7-3-.1-.6.4-2.3 0-3.6.6z"/>
  <path fill="#00d860" d="M504.9 312.4c.7-.3 2.3-1.5 3-1.6 1.4-.1 2.8.4 3.5.6.7.2 1.5 0 1-.6-.4-.5 0-1.6 2-1.3 2.2.2 3.2.6 5.3.4 2.1-.2 2.9 1.3 6.7-.2-.2 1.5.5 1.6 1.2 1.3.7-.2 1.5-.2 2.7.7 1.3 1 8.7 1 10.4.7 1.8-.3 2.6.6 1.3 1s-1.6 1-1.3 1.5c.3.4.6.9-1 .7-1.7-.2-2 .3-2.7.8-.8.6-1 1-3.3.5-2.2-.4-2.7-.1-3.9 0-1.2.2-1.5.3-2.8-.1a9.6 9.6 0 0 0-5.5-.3c-1.6.6-2.7 1-4.2.6-1.5-.3-1.5-.2-.6-1 .8-1 1-1 2.8-1.1 1.8-.2 3-.7 1.9-1.4-1.3-.7-1.6-.6-3.3.1-1.6.8-2.4 1.4-4.3.4-1.8-1-2.6-.9-4-.5-1.2.3-3.2-.5-4.9-1.2zm6.1 3c-2.4.4-3-1.1-5.4-.9-.8.2-2.2 1.2-.3 1 1.9-.1 4 .9 5.8.8 1.8-.1 1-1 0-.9zm-2.6 1.7c1.1-.4 3.6.5 4.8.3 1.1-.2 2 .4.8.9-1.2.4-3.7-.7-5-.4-1.1.4-2.4-.1-.7-.8zm-24.4 6.7c1.7 0 7.8-.3 10.2-5.3.2-.4.3-.6 1 0 .7.5 3.6 2.1 8.8 2.6 1.5 0 3 .8.1.7-3-.2-7.6-1-9.1-2-2.7 4.1-7.4 4.6-11 4.5-2.1 0-1.6-.6 0-.5z"/>
  <path fill="#00d860" d="M497.1 316.8c-.8 1.1-3.6 3-4.8 3.2-1.3 0-5.2-.2-6.1-.6-1-.3-2.1-.3-.8.7a11 11 0 0 0 6 1.3c1.6-.3 3.1-.8 4.2 0 1 .6 3 1.8 4.2 1.6 1.2-.3 3.5-.3 4.3 0 .8.4 2.1 1.6.1 1-2-                                                                                                                                                                                                                                                                                                                                                                                                                                                                                                                                                                                                                                                                                                                                                                                                                                                                                                                                                                                                                                                                                                                                                                                                                                                                                                                                                                                                                                                                                                                                                                                                                                                                                                                                                                                                                                                                                                                                                                                                                                                                                                                                                                                                                                                                                                                                                                                                                                                                                                                                                                                                                                                                                                                                                                                                                                                                                                                                                                                                                                                                                                                                                                                                                                                                                                                                                                                                                                                                                                                                                                                                                                                                                                                                                                                                                                                                                                                                                                                                                                                                                                                                                                                                                                                                                                                                                                                                                                                                                                                                                                                                                                                                                                                                                                                                                                                                                                                                                                                                                                                                                                                                                                                                                                                                                                                                                                                                                                                                                                                                                                                                                                                                                                                                                                                                                                                                                                                                                                                                                                                                                                                                                                                                                                                                                                                                                                                                                                                                                                                                                                                                                                                                                                                                                                                                                                                                                                                                                                                                                                                                                                                                                                                                                                                                                                                                                                                                                                                                                                                                                                                                                                                                                                                                                                                                                                                                                                                                                                                                                                                                                                                                                                                                                                                                                                                                                                                                                                                                                                                                                                                                                                                                                                                                                                                                                                                                                                                                                                                                                                                                                                                                                                                                                                                                                                                                                                                                                                                                                                                                                                                                                                                                                                                                                                                                                                                                                                                                                                                                                                                                                                                                                                                                                                                                                                                                                                                                                                                                                                                                                                                                                                                                                                                                                                                                                                                                                                                                                                                                                                                                                                                                                                                                                                                                                                                                                                                                                                                                                                                                                                                                                                                                                                                                                                                                                                                                                                                                                                                                                                                                                                                                                                                                                                                                                                                                                                                                                                                                                                                                                                                                                                                                                                                                                                                                                                                                                                                                                                                                                                                                                                                                                                                                                                                                                                                                                                                                                                                                                                                                                                                                                                                                                                                                                                                                                                                                                                                                                                                                                                                                                                                                                                                                                                                                                                                                                                                                                                                                                                                                                                                                                                                                                                                                                                                                                                                                                                                                                                                                                                                                                                                                                                                                                                                                                                                                                                                                                                                                                                                                                                                                                                                                                                                                                                                                                                                                                                                                                                                                                                                                                                                                                                                                                                                                                                                                                                                                                                                                                                                                                                                                                                                                                                                                                                                                                                                                                                                                                                                                                                                                -1.5-.7-.6zm.8.9c-.8.3-.3 1.2.7.6s1-1.5-.8-.6z"/>
  <path d="M467.4 147.9c-.6.4-.2 1.2.9.6 1-.6.9-1.5-.9-.6zm.9 1c-.8.3-.4 1.2.7.6 1-.7 1-1.5-.8-.6z"/>
  <path d="M467 149.5c-.6.3-.2 1.2.9.6 1-.6.8-1.5-.8-.6z"/>
  <path d="M467 150.3c-.5.4-.1 1.4 1 .7 1-.7.8-1.5-1-.7z"/>
  <path fill="#cf6200" d="M466.6 158.9c-.7 0-1.2 1.1-.3 1.3.9.2 1.1.3 1.1.9 0 .6.3 1.7 1.2 1.7 1 0 1.8-1 1-1.3-.9-.3-1.6-.6-1.7-1.4 0-.7-.8-1.2-1.3-1.2z"/>
  <path fill="#ff0" d="m491.5 153 .5.6c.7.5 2 0 1.7-.5-.1-.4-.8-2 1-.8l9.2 6.5c1.9 1.4.6 1.6-.2 1.1l-5-2.3c-1.5-.9-1.7-.5-2-.3 0 .3 0 .9.6 1.4-.9.1-2.3 0-2.8-1-.5-1.2-1.7-2.6-2.6-3.7-.3-.4-.4-.7-.3-.9z"/>
  <path fill="#00d860" d="M542 319.5c-1.3.9-3 2.4-1.9 4.5l.4-.1a124.1 124.1 0 0 0 12.9-19v-.6a17.9 17.9 0 0 1-4.5 2.7c.6 1.7-2.3 3.8-3.7 4.4.6 1 .4 2.6-1 2.9.3.8-.7.8-2 1.4-1.1.5-1.7.8-2.1 1.5.6-.4 1.6-.7 2-.5.4.2.6.9-.3 1.1-.8.3-1.4.7-1.8 1 1.3-.3 3.2-.2 2 .7z"/>
  <path stroke="#000" stroke-width=".4" d="M481.8 151.2c-1.6-1.2-2-.4-1.6 0 .4.4 0 1.5-1.1 2h-4c-.7 0-1.9 1.5 0 1l6.3-1c.8 0 1.6-.9 0-2zm2.7 2.3c-1.1-1.2-1.5-.8-1.1 0 .4.8-.4 1.2-1.2 1.2l-5.5 1.5c-1.5 0-1.5 1.2.4 1.2 2 0 5.9-2 6.3-2 .4 0 .8-1.1 1.1-.7.4.4 1.2 0 0-1.2zm1.2 3.1-3.9 2c-1.2 0-2 1.2 0 1.2s4-2 4.7-2.4l1.6-.8s1.5-.4 0-1.5c-1.6-1.2-3.2 0-2.4.4.8.4 0 1.1 0 1.1z"/>
  <path d="M469.7 131.2c-2.5-1.7-5.2 1.7-2.5 3.6 2.4 1.7 5-2 2.6-3.6z"/>
  <path fill="#fff" d="M466.6 132.7h.7c0 .8.7 2 1.8 1.7-.9.7-2.6-.2-2.5-1.7zm9.6 37c.8.3 3.4.5 4.4.5l-1.2 2.2c-.3.7-.4.8-.5-.3 0-1-.6-1.7-1.1-.6l-1 2c-.3.4-.7.5-.6-.6.2-1.1.1-2.3 0-3.2z"/>
  <path fill="none" stroke="#000" stroke-width="1.2" d="M574.5 199.7c0 63.7-10.2 132.5-93 165.3-82.6-32.8-92.7-101.6-93.1-165.3zm0 0c0-24.3-1.2-47.8-.8-68a248.7 248.7 0 0 0-92.3-16.9c-20.7 0-61.4 3.1-92.2 16.8.7 20.3-.8 43.8-.8 68z"/>
  <path fill="#012169" d="M0 0h320v240H0Z"/>
  <path fill="#fff" d="m37.5 0 122 90.5L281 0h39v31l-120 89.5 120 89V240h-40l-120-89.5L40.5 240H0v-30l119.5-89L0 32V0Z"/>
  <path fill="#c8102e" d="M212 140.5 320 220v20l-135.5-99.5Zm-92 10 3 17.5-96 72H0ZM320 0v1.5l-124.5 94 1-22L295 0ZM0 0l119.5 88h-30L0 21Z"/>
  <path fill="#fff" d="M120.5 0v240h80V0ZM0 80v80h320V80Z"/>
  <path fill="#c8102e" d="M0 96.5v48h320v-48zM136.5 0v240h48V0Z"/>
</svg>
