<svg xmlns="http://www.w3.org/2000/svg" xmlns:xlink="http://www.w3.org/1999/xlink" id="flag-icons-bz" viewBox="0 0 640 480">
  <defs>
    <radialGradient id="a">
      <stop offset="0" stop-color="#ffef5d"/>
      <stop offset="1" stop-color="#ea5700"/>
    </radialGradient>
    <radialGradient id="b">
      <stop offset="0" stop-color="#952d1a"/>
      <stop offset="1" stop-color="#570a00"/>
    </radialGradient>
    <radialGradient xlink:href="#a" id="c" cx="247.1" cy="238.3" r="36" fx="247.1" fy="238.3" gradientTransform="scale(1.22624 .8155)" gradientUnits="userSpaceOnUse"/>
    <radialGradient xlink:href="#a" id="d" cx="322" cy="152.9" r="10.6" fx="322" fy="152.9" gradientTransform="scale(.93615 1.06821)" gradientUnits="userSpaceOnUse"/>
    <radialGradient xlink:href="#b" id="e" cx="364.2" cy="237.8" r="36" fx="364.2" fy="237.8" gradientTransform="scale(1.2242 .81686)" gradientUnits="userSpaceOnUse"/>
    <radialGradient xlink:href="#b" id="f" cx="468.1" cy="156.1" r="10.7" fx="468.1" fy="156.1" gradientTransform="scale(.95596 1.04607)" gradientUnits="userSpaceOnUse"/>
  </defs>
  <path fill="#ce1126" d="M0 0h640v480H0z"/>
  <path fill="#003f87" d="M0 34.3h640v411.4H0z"/>
  <circle cx="320" cy="240" r="188.6" fill="#fff"/>
  <circle cx="320" cy="239" r="156.3" fill="none" stroke="#552300" stroke-width="3.9"/>
  <path fill="#007f00" d="M302 73.2c14-15.2 26.9 2.3 26.5 10.6C328.2 92 314 110 301 95.5c13.4 3.4 17.4-11.5 24.1-11.7-6.7.2-9.5-14.6-23.2-10.6zm-147.2 119c-7.4-19.4 14-23 21.3-19 7.3 3.9 17.3 24.6-1.6 29.6 9-10.4-2.7-20.5.2-26.6-2.9 6-17.5 2-19.9 16zM471.9 173c19.4 7.6 7.6 25.8-.2 28.4-7.9 2.7-30-4-21-21.2 1.6 13.6 17 12 19.7 18.1-2.6-6.2 10.3-14 1.5-25.3zM218.8 377.4c-20.7-2-14.3-22.7-7.5-27.4 6.8-4.7 30-4.3 26 14.7-5.3-12.6-19.7-6.8-24-12 4.3 5.2-6 16.3 5.5 24.7zm209.3-15c.3 20.7-21.1 16.8-26.6 10.6-5.4-6.2-7.7-29 11.8-27.3-12 6.6-4.6 20.2-9.4 25 4.8-4.8 17.1 4 24.2-8.2zM170 153c-1.9-20.6 19.8-18.3 25.7-12.6 6 5.8 10 28.4-9.6 28.2 11.5-7.6 3-20.5 7.4-25.6-4.4 5-17.3-2.8-23.5 10zm22.2 193c-20.5-3.5-12.7-23.7-5.6-27.9 7-4.2 30.1-2.3 25 16.4-4.5-13-19.3-8-23.1-13.6 3.8 5.5-7.2 16 3.7 25zM354.3 74c18.6-9.2 24.3 11.7 21 19.3-3.2 7.5-23 19.4-29.8 1.3 11.2 7.9 20.3-4.7 26.7-2.4-6.4-2.3-3.7-17-17.9-18.2zM394 388.3c-9.3 18.5-26.5 5.3-28.5-2.7s6.5-29.3 23-19c-13.8.5-13.4 16-19.8 18 6.4-2 13.3 11.4 25.3 3.7zm90.5-178.7c15.6 13.7-1.7 26.8-10 26.7-8.2-.1-26.8-13.8-12.5-27-3 13.4 12 17 12.4 23.6-.3-6.7 14.5-9.8 10-23.3zm-263-108.8c4.7-20 24.5-11.2 28.4-3.9 3.8 7.3.5 30-18 23.8 13.3-3.7 9.3-18.6 15-22-5.7 3.4-15.5-8-25.4 2.1zm-61.6 172.5c-18.2-10-4.2-26.5 4-28.1 8-1.7 29.2 7.7 18 23.7.2-13.7-15.4-14-17.2-20.5 1.8 6.5-12 12.7-4.8 25zm263.6-159.6c20.6-3 19.4 18.7 14 24.8-5.5 6.2-28 11.4-28.9-8 8.2 11 20.8 1.9 26.2 6-5.4-4.1 1.9-17.3-11.3-22.8zM306.3 408.1c-19 8.4-23.8-12.7-20.3-20 3.6-7.5 23.9-18.6 30-.1-11-8.4-20.5 3.8-26.8 1.3 6.3 2.5 3 17.2 17.1 18.8zM476.8 293c8.6 18.8-12.6 23.7-20.1 20.2-7.5-3.5-18.8-23.6-.2-29.7-8.4 10.9 4 20.3 1.4 26.6 2.5-6.3 17.3-3 19-17.1zm-325.1-60.6c-12-17 8-25.7 16-23.6 8 2 22.8 19.8 5.7 29.2 6.2-12.3-7.6-19.3-6.3-25.9-1.3 6.6-16.5 6.1-15.4 20.2zM264 395.6c-19.6 7.1-23-14.2-18.9-21.4 4-7.2 25-16.9 29.9 2-10.3-9.1-20.7 2.4-26.8-.5 6 2.9 1.8 17.3 15.8 19.9zm-5.7-314c11.6-17.2 27-2 28 6.3.9 8.1-10.3 28.2-25.4 15.8 13.8 1.3 15.4-14 22-15.2-6.6 1.2-11.7-13-24.6-7zm200.2 252.1c1.3 20.6-20.3 17.7-26 11.7-5.8-5.9-9.1-28.6 10.4-27.8-11.7 7.2-3.6 20.4-8.2 25.4 4.6-5 17.3 3.3 23.8-9.3zm-5.3-194.4c20.4 4 12 24 4.7 28-7.2 4-30.2 1.3-24.4-17.2 4 13.1 19 8.7 22.6 14.4-3.6-5.7 7.7-15.7-3-25.2zm-258.4-14.6c.2-20.6 21.5-16.2 26.8-9.9 5.3 6.3 7 29.3-12.4 27 12.2-6.3 5-20 10-24.7-5 4.7-17-4.5-24.4 7.6zM169 311c-18.6-9.4-5.1-26.4 2.9-28.3 8-2 29.5 6.7 19 23-.4-13.7-16-13.4-18-19.8 2 6.4-11.6 13.1-4 25zM392 91c19.5-7.3 23 14 19 21.2-4 7.2-24.9 17.1-29.9-1.7 10.4 9 20.7-2.6 26.9.3-6.2-2.9-2-17.3-16-19.8zm-41.3 314.8c-15.2 14.2-26.7-4.1-25.8-12.3.9-8.2 16.3-25.3 28.2-9.9-13-4.3-18 10.4-24.9 10 6.8.4 8.5 15.3 22.5 12.2zm132.7-158c14.2 15.1-4.4 26.5-12.6 25.5-8.2-.9-25.4-16.3-9.8-28-4.4 13 10.3 18 10 24.7.3-6.7 15.4-8.4 12.4-22.2z"/>
  <path fill="#005800" d="M301 95.5c13.4 3.4 16.7-11.3 23.5-11.5-4 4.7-14.2 16.7-23.5 11.5zm1-22.3c14-15.2 26.9 2.3 26.5 10.6-11.5-20-15-17-26.6-10.6zM174.4 202.8c9-10.4-2.8-19.9 0-26 2.6 5.6 8.9 20.1 0 26zm-19.7-10.7c-7.4-19.3 14-22.9 21.3-19-23.1 1.4-22 6-21.3 19zm295.9-11.8c1.6 13.5 16.7 11.3 19.3 17.5-5.9-2-21-7.1-19.3-17.6zm21.2-7.3c19.4 7.6 7.6 25.8-.3 28.4 14.7-17.8 10.5-20 .3-28.4zM237.3 364.7c-5.3-12.6-19.2-6.4-23.4-11.7 6.2.3 22 1.2 23.4 11.7zm-18.5 12.7c-20.7-2-14.3-22.7-7.5-27.4-9.2 21.1-4.6 22.1 7.5 27.4zm194.5-31.7c-12 6.6-4.2 19.6-9 24.3-.4-6-1.3-21.8 9-24.3zm14.8 16.7c.3 20.7-21.1 16.8-26.6 10.6 22.3 6.6 22.7 2 26.6-10.6zM186 168.4c11.5-7.5 2.7-19.8 7-25 1 6.1 3 21.8-7 25zM169.9 153c-1.9-20.6 19.8-18.3 25.7-12.6-22.7-4.9-22.8-.2-25.7 12.6zm41.5 181.5c-4.4-13-18.7-7.6-22.5-13.2 6.1.7 21.9 2.7 22.5 13.2zM192.1 346c-20.5-3.5-12.7-23.7-5.6-27.9-10.6 20.5-6 21.8 5.6 27.9zM345.4 94.6c11.3 7.9 19.7-4.7 26.1-2.5-5.4 3-19.3 10.6-26 2.5zm8.9-20.6c18.6-9.2 24.3 11.7 21 19.3-3.5-22.8-8-21.1-21-19.3zm34.2 292.6c-13.8.5-12.8 15.6-19.3 17.6 2.5-5.6 9-20 19.3-17.5zm5.5 21.7c-9.3 18.5-26.5 5.3-28.5-2.7 16.7 16 19.2 12 28.5 2.7zm68-179c-3.1 13.4 11.9 16.3 12.2 23-4.9-3.8-17.2-13.7-12.2-23zm22.5.3c15.6 13.7-1.7 26.8-10 26.7 19.9-12 16.7-15.4 10-26.7zm-252.6-89c13.3-3.6 8.8-18 14.6-21.5-1 6-4 21.5-14.6 21.6zm-10.4-19.8c4.7-20 24.5-11.2 28.4-3.9-20-11.7-21.6-7.2-28.4 4zm-39.5 168c.1-13.6-15.2-13.3-17-19.8 5.6 2.7 19.9 9.7 17 19.9zm-22 4.5c-18.3-10-4.3-26.5 3.9-28.1-16.8 15.9-13 18.6-4 28.1zm248.6-142.8c8.2 11 20.2 1.6 25.6 5.7-6.1 1.2-21.7 4.1-25.6-5.7zm14.9-16.8c20.6-3 19.4 18.7 14 24.8 3.7-22.7-1-22.5-14-24.8zM316 388c-11-8.4-19.9 3.9-26.1 1.4 5.5-2.8 19.7-9.8 26-1.4zm-9.7 20.1c-19 8.4-23.8-12.7-20.3-20 2.7 22.8 7.2 21.4 20.3 20zm150.2-124.7c-8.4 10.9 4 19.7 1.5 25.9-2.8-5.4-10-19.5-1.5-26zm20.3 9.5c8.6 18.8-12.6 23.7-20.1 20.2 23-2.8 21.6-7.2 20.1-20.2zm-303.3-55c6.2-12.3-7.7-18.6-6.4-25.2 3.8 4.8 13.5 17.3 6.4 25.2zm-21.8-5.7c-12-16.9 8-25.5 16-23.5-22.1 7-19.8 11-16 23.6zm123.3 144c-10.3-9.1-20 2.5-26.2-.4 5.7-2.4 20.4-8.5 26.2.3zm-11 19.4c-19.6 7.1-23-14.2-18.9-21.4 1.1 23 5.7 21.9 18.9 21.4zm-3-291.9c13.7 1.3 14.7-13.8 21.3-15-3.1 5.3-11.4 18.8-21.4 15zm-2.7-22.2c11.6-17.1 27-1.8 28 6.3-14.5-18-17.6-14.3-28-6.3zM443 317.6c-11.7 7.2-3.3 19.8-7.9 24.8-.7-6.1-2.3-21.8 8-24.8zm15.6 16.1c1.3 20.6-20.3 17.7-26 11.7 22.4 5.7 22.7 1 26-11.7zm-25-183.6c4 13.1 18.5 8.3 22.1 14-6-1-21.8-3.5-22-14zm19.7-10.8c20.4 4 12 24 4.7 28 11.3-20.1 6.8-21.6-4.7-28zm-244 2.6c12.2-6.4 4.7-19.6 9.6-24.2.3 6.1.8 21.9-9.6 24.2zm-14.4-17.2c.2-20.6 21.5-16.2 26.8-9.9-22-7.1-22.6-2.4-26.8 10zm-4 181c-.3-13.7-15.6-12.8-17.6-19.2 5.7 2.4 20.2 9 17.6 19.2zM169 311c-18.5-9.4-5-26.4 3-28.3-16.2 16.4-12.3 19-3 28.3zm212.2-200.4c10.4 9 20-2.8 26.2 0-5.7 2.6-20.3 8.7-26.2 0zM392 91c19.5-7.3 23 14 19 21.3-1.2-23-5.8-21.9-19-21.3zm-38.9 292.6c-13-4.3-17.4 10.2-24.2 10 4.3-4.5 15.4-15.8 24.2-10zm-2.4 22.2c-15.2 14.2-26.7-4.1-25.8-12.3 10 20.7 13.8 17.9 25.8 12.3zM461 245.3c-4.4 13 10.2 17.3 9.9 24-4.5-4.2-15.8-15.3-9.9-24zm22.4 2.5c14.2 15.1-4.4 26.5-12.6 25.5 21-9.9 18.1-13.6 12.6-25.5z"/>
  <g fill="#730000" stroke="#000" stroke-width=".5">
    <path d="M349 120.3s.6-1.3 1.7-.6c1 .8 1.3 4.2 1.3 4.2l-1.6.8s.9-1.3-1.3-4.4zm-8.8 30.7s.8-1-.3-3.4l1.5-.5s.6 1.8-.2 3.9h-1m27-5.4-3.7 2.3 1.9.8 4.5-2.6-2.7-.5m-49.7 14.6c-1 .8-1 2.1-1.7 3-.4.7-2 1.8-2 3-.2 1.1-.3 1.9.2 3.5.6 1.5 3 8.5 2 13.7-1 5.3-.6 7.5-.3 8.3.4.8 1.6 3 2.3 3 1.6-.2.9-.7 1.5-1.7 1.4-2.5 0-22.2-.7-27.6-.5-4.2-2.5-8-2.7-8.4l-.8-2.6c-1.5-3.5-3.3-6.5-3.3-13.9 0 0-4.7 1.1-8.8-8.2-2.2-4.7-5.3-4.2-9-5.7l1.6-1.1s3.2 1.6 4.7 1.6c1.6 0 1-3.2 1-3.2l1.7-1.5v6.8c0 3.1 4.3 7.4 6.8 8.7 1.6.8 3.6-2.4 3.1-5.6-.5-3 0-7.3 0-7.3l2.2 1.3s-.8 1.3-.6 2.1c.3.8 1.3-.7 2.1-1.5 0 0 .2.2 1 .2l-2.3 4c-.8 1.2-.8 6.2-.8 8 0 2 .7 6.2.7 7.6 0 1 1.8 5 3.3 7.4l1.6 3.5c1.2 1.9 1.3 3.2 2 4.7.4.8 1 3 1.6 7l.7 7c.2 2.4 2.2.6 4.5-1 2.4-1.8 2.4-6 2.4-6s1.8-1.6 1.5-.7c-.2 1 1 2 1 2-1.4 3.3-.6 2.9.9 2.8 1.5-.2 6.5-4 6.5-4 .7-.2 3.8-.2 3.3 0-.6.3-1.4 1.7-1.4 1.7l3.3-.4c-1.1.9-5.5 3.4-6.5 4a90.6 90.6 0 0 1-8.6 4.1c-2.3 1-6.7 3.2-                                                                                                                                                                                                                                                                                                                                                                                                                                                                                                                                                                                                                                                                                                                                                                                                                                                                                                                                                                                                                                                                                                                                                                                                                                                                                                                                                                                                                                                                                                                                                                                                                                                                                                                                                                                                                                                                                                                                                                                                                                                                                                                                                                                                                                                                                                                                                                                                                                                                                                                                                                                                                                                                                                                                                                                                                                                                                                                                                                                                                                                                                                                                                                                                                                                                                                                                                                                                                                                                                                                                                                                                                                                                                                                                                                                                                                                                                                                                                                                                                                                                                                                                                                                                                                                                                                                                                                                                                                                                                                                                                                                                                                                                                                                                                                                                                                                                                                                                                                                                                                                                                                                                                                                                                                                                                                                                                                                                                                                                                                                                                                                                                                                                                                                                                                                                                                                                                                                                                                                                                                                                                                                                                                                                                                                                                                                                                                                                                                                                                                                                                                                                                                                                                                                                                                                                                                                                                                                                                                                                                                                                                                                                                                                                                                                                                                                                                                                                                                                                                                                                                                                                                                                                                                                                                                                                                                                                                                                                                                                                                                                                                                                                                                                                                                                                                                                                                                                                                                                                                                                                                                                                                                                                                                                                                                                                                                                                                                                                                                                                                                                                                                                                                                                                                                                                                                                                                                                                                                                                                                                                                                                                                                                                                                                                                                                                                                                                                                                                                                                                                                                                                                                                                                                                                                                                                                                                                                                                                                                                                                                                                                                                                                                                                                                                                                                                                                                                                                                                                                                                                                                                                                                                                                                                                                                                                                                                                                                                                                                                                                                                                                                                                                                                                                                                                                                                                                                                                                                                                                                                                                                                                                                                                                                                                                                                                                                                                                                                                                                                                                                                                                                                                                                                                                                                                                                                                                                                                                                                                                                                                                                                                                                                                                                                                                                                                                                                                                                                                                                                                                                                                                                                                                                                                                                                                                                                                                                                                                                                                                                                                                                                                                                                                                                                                                                                                                                                                                                                                                                                                                                                                                                                                                                                                                                                                                                                                                                                                                                                                                                                                                                                                                                                                                                                                                                                                                                                                                                                                                                                                                                                                                                                                                                                                                                                                                                                                                                                                                                                                                                                                                                                                                                                                                                                                                                                                                                                                                                                                                                                                                                                                                                                                                                                                                                                                                                                                                                                                                                                                                                                                                                                                                                                                                                                                                                                                                                                                                                                                                                                                                                                                                                                                                                                                                                                                                                                                                                                                                                                                                                                                                                                                                                                                                                                                                                                                                                                                                                                                                                                                                                                                                                                                                                                                                                                                                                                                                                                                                                                                                                                                                                                                                                                                                                                                                                                                                                                                                                                                                                                                                                                                                                                                                                                                                                                                                                                                                                                                                                                                                                                                                                                                                                                                                                                                                                                                                                                                                                                                                                                                                                                                                                                                                                                                                                                                                                                                                                                                                                                                                                                                                                                                                                                                                                                                                                                                                                                                                                                                                                                                                                                                                                                                                                                                                                                                                                                                                                                                                                                                                                                                                                                                                                                                                                                                                                                                                                                                                                                                                                                                                                                                                                                                                                                                                                                                                                                                                                                                                                                                                                                                                                                                                                                                                                                                                                                                                                                                                                                                                                                                                                                                                                                                                                                                                                                                                                                                                                                                                                                                                                                                                                                                                                                                                                                                                                                                                                                                                                                                                                                                                                                                                                                                                                                                                                                                                                                                                                                                                                                                                                                                                                                                                                                                                                                                                                                                                                                                                                                                                                                                                                                                                                                                                                                                                                                                                                                                                                                                                                                                                                                                                                                                                                                                                                                                                                                                                                                                                                                                                                                                                                                                                                                                                                                                                                                                                                                                                                                                                                                                                                                                                                                                                                                                                                                                                                                                                                                                                                                                                                                                                                                                                                                                                                                                                                                                                                                                                                                                                                                                                                                                                                                                                                                                                                                                                                                                                                                                                                                                                                                                                                                                                                                                                                                                                                                                                                                                                                                                                                                                                                                                                                                                                                                                                                                                                                                                                                                                                                                                                                                                                                                                                                                                                                                                                                                                                                                                                                                                                                                                                                                                                                                                                                                                                                                                                                                                                                                                                                                                                                                                                                                                                                                                                                                                                                                                                                                                                                                                                                                                                                                                                                                                                                                                                                                                                                                                                                                                                                                                                                                                                                                                                                                                                                                                                                                                                                                                                                                                                                                                                                                                                                                                                                                                                                                                                                                                                                                                                                                                                                                                                                                                                                                                                                                                                                                                                                                                                                                                                                                                                                                                                                                                                                                                                                                                                                                                                                                                                                                                                                                                                                                                                                                                                                                                                                                                                                                                                                                                                                                                                                                                                                                                                                                -.3l-.4-.3.2-.3 3.1 1.7-.2.3-.3-.1a2 2 0 0 0-.4-.1h-.4a.9.9 0 0 0-.2.3l-2.2 4a3.3 3.3 0 0 0-.3.7 1.8 1.8 0 0 0 0 .8c0 .2 0 .5.2.7l.9.8 1 .3a1.9 1.9 0 0 0 1.5-.5l.5-.6 1.6-3 .5-1v-.6c0-.2-.2-.3-.4-.5a3.6 3.6 0 0 0-.4-.3l.2-.4 3 1.7a19.2 19.2 0 0 1-.2.3m4.3 7.5a1.9 1.9 0 0 1 0 1.8 2 2 0 0 1-.8.8 2.2 2.2 0 0 1-1 .3l-1-.1a4 4 0 0 1-.9-.4l-3.5-2 .2-.4a5 5 0 0 0 .8.3.5.5 0 0 0 .3 0 .7.7 0 0 0 .3-.3l3-5.3a1 1 0 0 0 .1-.3.6.6 0 0 0-.1-.4 1.7 1.7 0 0 0-.3-.3l-.3-.2.2-.4 3.4 2 .7.5.6.7a1.6 1.6 0 0 1 0 1.6 1.8 1.8 0 0 1-.6.6l-.7.3a2.5 2.5 0 0 1-.7 0 3.3 3.3 0 0 1-.8-.2v.1a5 5 0 0 1 .6.6l.5.7zm-.6-1.8c.2 0 .4-.2.5-.3a2.7 2.7 0 0 0 .5-.6c.2-.4.3-.8.2-1.2-.1-.3-.4-.6-.9-.9l-.4-.2-.4-.3-1.6 2.8.6.4.8.3h.7zm-.6 2.7c.2-.4.3-.8.1-1.3 0-.4-.4-.8-1-1.1a29 29 0 0 0-.5-.4l-.4-.1-1.5 2.5a.6.6 0 0 0 0 .7c.1.2.4.4.7.5.5.3 1 .4 1.4.3.5-.2.8-.5 1.2-1zm18.9 4.3a3.5 3.5 0 0 0-.5 0 1.4 1.4 0 0 0-.6-.1c-.1 0-.3.1-.4.4a5.9 5.9 0 0 0-.5 1l-1.5 3.3c-.1.4-.4.7-.7 1a2.6 2.6 0 0 1-1 .4 3.2 3.2 0 0 1-1.1 0 4.3 4.3 0 0 1-2.2-1 3.1 3.1 0 0 1-.7-.8 2.2 2.2 0 0 1-.3-1 2 2 0 0 1 .2-.9l2-4.5a.9.9 0 0 0 0-.4.7.7 0 0 0-.1-.3 1.6 1.6 0 0 0-.3-.3l-.4-.2.2-.4 3.3 1.4-.2.4a3.5 3.5 0 0 0-.4-.1 2.3 2.3 0 0 0-.4 0h-.3a1 1 0 0 0-.2.3l-1.9 4.3-.2.7a1.7 1.7 0 0 0 .4 1.4c.2.3.5.5 1 .7l1 .2a1.9 1.9 0 0 0 1.5-.7 2.5 2.5 0 0 0 .4-.6l1.3-3.1.3-1v-.7l-.4-.4a3.7 3.7 0 0 0-.5-.3l.2-.4 3.1 1.4-.1.3m9.2 10.8-3.6-1v-.4a9 9 0 0 0 .6 0l.4.1a.8.8 0 0 0 .4-.2.7.7 0 0 0 .2-.3l1.7-5.8a1.4 1.4 0 0 0-.1 0l-4.8 6h-.3l-.6-7.9-1.5 4.8-.2 1.1.1.6.5.4a3.2 3.2 0 0 0 .5.3l-.2.4-3.2-1v-.4h.6a1 1 0 0 0 .5 0c.2 0 .3-.2.5-.4l.3-1 1.2-4.2a1.7 1.7 0 0 0 .1-.6 1 1 0 0 0-.1-.4 1.2 1.2 0 0 0-.4-.4 2 2 0 0 0-.5-.2l.1-.4 2.8.8.6 6.7 3.5-4.5.3-.5a2.8 2.8 0 0 0 .2-.4l2.7.8-.1.4a3.9 3.9 0 0 0-.5 0 2.4 2.4 0 0 0-.4-.1.4.4 0 0 0-.3.1 1 1 0 0 0-.1.4l-1.7 5.8a.8.8 0 0 0 0 .3l.1.3a3.4 3.4 0 0 0 .8.4l-.1.4m8.7-2.6a1.9 1.9 0 0 1 .7 1.7l-.4 1c-.2.3-.5.4-.8.6-.3.2-.6.2-1 .3h-1l-4-.5v-.4h.5a1.7 1.7 0 0 0 .4 0 .5.5 0 0 0 .3-.2.7.7 0 0 0 .1-.4l.8-6a1 1 0 0 0 0-.3.6.6 0 0 0-.3-.3 1.7 1.7 0 0 0-.4-.2h-.3v-.5l3.9.5c.3 0 .6 0 .9.2l.7.4a1.6 1.6 0 0 1 .6 1.5l-.2.8a1.7 1.7 0 0 1-.6.5 2.6 2.6 0 0 1-.6.3 3.4 3.4 0 0 1-.8.2l.8.3.7.5zm-1.3-1.5.4-.5.2-.7a1.5 1.5 0 0 0-.3-1.1c-.2-.3-.6-.5-1.1-.5a27.3 27.3 0 0 0-1-.1l-.4 3.2h.8c.3.1.6 0 .8 0a1.3 1.3 0 0 0 .6-.3zm.5 2.8c0-.5 0-1-.3-1.3-.3-.3-.8-.5-1.4-.6l-.7-.1h-.4l-.3 2.9a.6.6 0 0 0 .2.6l.8.3c.6 0 1 0 1.5-.4.3-.3.5-.7.6-1.4zm11.4 2.6h-2.2a44 44 0 0 0-1.4-2l-1.3-1.8h-1v2.7l.1.4.3.2h.4l.5.1v.4h-3.6v-.4h.4l.4-.1a.5.5 0 0 0 .2-.2.7.7 0 0 0 .1-.4v-6.4l-.3-.3a2.2 2.2 0 0 0-.4 0l-.4-.1v-.4h4.9a2.8 2.8 0 0 1 .9.4l.6.6a2.3 2.3 0 0 1 0 1.8 2 2 0 0 1-.4.7 2.5 2.5 0 0 1-.7.4 5.3 5.3 0 0 1-.8.3l1 1.4c.3.4.7.8 1 1.4a2.5 2.5 0 0 0 1 .8 3 3 0 0 0 .8.1v.4zm-3.1-6.2c0-.5-.2-1-.4-1.2-.3-.3-.8-.5-1.3-.5h-1v3.6h.8c.5 0 1-.1 1.3-.5.4-.3.6-.8.6-1.4zm13 5.6-3.6.3v-.4l.7-.2c.2 0 .3-.2.3-.2v-.2a.5.5 0 0 0 0-.1l-.9-1.8-3 .2a9.6 9.6 0 0 0-.2.7l-.1.6a3.4 3.4 0 0 0-.1.4v.3c0 .2.1.3.4.3l.9.1v.4l-3.2.3v-.4a2 2 0 0 0 .4-.1 1.3 1.3 0 0 0 .7-.6l.2-.5 1.1-3.6 1.1-3.6h.5l3.4 7 .2.3a1.2 1.2 0 0 0 .7.4h.4v.4zm-3.7-3.1-1.6-3.2-1 3.4 2.6-.2zm15.7-6.7a27.9 27.9 0 0 0-.4.2 3.1 3.1 0 0 0-.8-.9c-.4-.2-.7-.4-1-.3a6.3 6.3 0 0 0-.3 0l-.6.2-1.4.4.9 3.2 1-.2.6-.3.3-.4.1-.4v-.6l.4-.2.9 3.2-.4.1a2.9 2.9 0 0 0-.3-.5l-.4-.4a.9.9 0 0 0-.5-.2 2.3 2.3 0 0 0-.6.1l-1 .3.8 2.8s0 .2.2.3a.6.6 0 0 0 .3.2h.4l.4-.1.1.4-3.5 1-.1-.4a9.5 9.5 0 0 0 .4-.2l.4-.2a.5.5 0 0 0 .2-.3.8.8 0 0 0 0-.3l-1.6-5.9a1.1 1.1 0 0 0-.2-.3l-.3-.2a2.4 2.4 0 0 0-.4 0 2.4 2.4 0 0 0-.5 0l-.1-.3 6.4-1.8.6 2m9.4-.7 1 2.4-6 2.8-.2-.3.4-.3a1.4 1.4 0 0 0 .3-.2.5.5 0 0 0 .1-.3.8.8 0 0 0 0-.4l-2.7-5.4a1 1 0 0 0-.2-.3.5.5 0 0 0-.4 0h-.4a2 2 0 0 0-.4 0l-.2-.3 3.3-1.6.2.4a2.8 2.8 0 0 0-.4.2 2.2 2.2 0 0 0-.3.3.4.4 0 0 0-.2.3.8.8 0 0 0 .1.4l2.5 5c0 .3.2.5.3.6l.3.2h.4l.7-.3.4-.2.4-.3.3-.2a.6.6 0 0 0 .2-.3 6.3 6.3 0 0 0 .2-2l.3-.2m4.5-8.3a4.2 4.2 0 0 1 1.5.8l1.2 1.4a5 5 0 0 1 .6 1.7 4.1 4.1 0 0 1 0 1.6 4 4 0 0 1-.7 1.5 4 4 0 0 1-1.2 1 4 4 0 0 1-3.2.4 4 4 0 0 1-1.4-.7 5 5 0 0 1-1.2-1.4 5 5 0 0 1-.6-1.7 4.3 4.3 0 0 1 0-1.7 4 4 0 0 1 2-2.4 4 4 0 0 1 1.5-.6 3.9 3.9 0 0 1 1.5.1zm2.3 5.6a4 4 0 0 0-.2-1.3 7 7 0 0 0-.7-1.4 7.2 7.2 0 0 0-1-1.3 4 4 0 0 0-1-.8 2.4 2.4 0 0 0-1-.2c-.5 0-.8.1-1.2.3-.4.3-.7.6-.9 1a2.6 2.6 0 0 0-.3 1c0 .5.1.9.3 1.3a7.2 7.2 0 0 0 1.5 2.6c.3.4.7.6 1 .8a2.4 2.4 0 0 0 1.2.3c.3 0 .7 0 1.1-.3a2.3 2.3 0 0 0 1.2-2zm10.5-5.7-1.9 1.3-2.3-.9-2-.6-.8.5 1.6 2.1.2.3h.4a1.8 1.8 0 0 0 .3-.1l.4-.3.3.4-3 2-.2-.3a8.6 8.6 0 0 0 .6-.5.5.5 0 0 0 0-.4.7.7 0 0 0 0-.3l-3.6-5a1 1 0 0 0-.2-.2.3.3 0 0 0-.4 0 3 3 0 0 0-.7.3l-.3-.4 3.2-2.2a4.6 4.6 0 0 1 .9-.5 2.7 2.7 0 0 1 .9-.2l.8.1a2.2 2.2 0 0 1 1.1 1.4v.8a2.5 2.5 0 0 1-.2.7 4.9 4.9 0 0 1-.5.8l1.6.5 1.6.5a2.5 2.5 0 0 0 1.2.1h.4a2.6 2.6 0 0 0 .4-.3l.2.4zm-6.2-3.3c-.3-.4-.6-.6-1-.7-.4-.1-.9 0-1.3.3l-.8.6 2 3 .7-.5c.4-.3.7-.7.8-1.2 0-.5 0-1-.4-1.5zm13.2-2 .7 2.4-6.6 2.4-.2-.4a4.3 4.3 0 0 0 .8-.4.6.6 0 0 0 .2-.3.7.7 0 0 0 0-.4l-2.2-5.6a1 1 0 0 0-.1-.3l-.4-.1h-.4a2.2 2.2 0 0 0-.5 0l-.1-.3 6.1-2.3.7 1.9-.4.1a2.7 2.7 0 0 0-.8-.7l-.9-.3a4.3 4.3 0 0 0-.4.2l-.6.2-1.2.4 1.1 3.1 1-.3c.2 0 .4-.2.5-.3a.9.9 0 0 0 .3-.4v-1.1l.4-.1 1.1 3-.4.2a3.2 3.2 0 0 0-.3-.5 1.5 1.5 0 0 0-.4-.3.9.9 0 0 0-.5-.2c-.2 0-.4 0-.6.2l-.9.3.9 2.4.2.5a.5.5 0 0 0 .3.3h.5l.7-.3.5-.2a3.9 3.9 0 0 0 1-.4l.2-.3.2-1v-1l.5-.1m7.1-5.8c.4.3.8.7 1 1.3.3.5.5 1 .6 1.7a4.9 4.9 0 0 1 0 1.8 4.1 4.1 0 0 1-.8 1.5 3.9 3.9 0 0 1-2.7 1.6 3.9 3.9 0 0 1-3-.9 4.1 4.1 0 0 1-1-1.2 4.9 4.9 0 0 1-.6-1.7 5 5 0 0 1 0-1.9l.8-1.5a4 4 0 0 1 2.7-1.5 4 4 0 0 1 1.6 0l1.4.8zm-.1 6c.2-.4.3-.8.3-1.3v-1.5a7 7 0 0 0-.4-1.5 3.9 3.9 0 0 0-.7-1.2 2.4 2.4 0 0 0-.9-.7 2.3 2.3 0 0 0-1.1-.1c-.5 0-1 .2-1.2.5-.3.2-.6.6-.7 1a4 4 0 0 0-.3 1.2 7 7 0 0 0 .4 3l.7 1.1c.2.4.5.6.9.7.3.2.7.2 1.2.2a2.3 2.3 0 0 0 1-.5 2.4 2.4 0 0 0 .8-1z"/>
  <path fill="none" stroke="#000" d="M366 205.1v53c0 10.6-1.4 52.6-46.5 69-45.3-16.4-46.7-58.4-46.7-69v-53H366"/>
</svg>
